<?xml version="1.0" encoding="UTF-8" standalone="no"?>
<svg
   xmlns:dc="http://purl.org/dc/elements/1.1/"
   xmlns:cc="http://creativecommons.org/ns#"
   xmlns:rdf="http://www.w3.org/1999/02/22-rdf-syntax-ns#"
   xmlns:svg="http://www.w3.org/2000/svg"
   xmlns="http://www.w3.org/2000/svg"
   xmlns:sodipodi="http://sodipodi.sourceforge.net/DTD/sodipodi-0.dtd"
   xmlns:inkscape="http://www.inkscape.org/namespaces/inkscape"
   id="svg10"
   preserveAspectRatio="xMidYMid meet"
   viewBox="0 0 245 192"
   height="192pt"
   width="245pt"
   version="1.0"
   sodipodi:docname="info.svg"
   inkscape:version="0.92.1 r15371">
  <sodipodi:namedview
     pagecolor="#ffffff"
     bordercolor="#666666"
     borderopacity="1"
     objecttolerance="10"
     gridtolerance="10"
     guidetolerance="10"
     inkscape:pageopacity="0"
     inkscape:pageshadow="2"
     inkscape:window-width="958"
     inkscape:window-height="1008"
     id="namedview8"
     showgrid="false"
     inkscape:zoom="0.76956522"
     inkscape:cx="211.73879"
     inkscape:cy="153.33333"
     inkscape:window-x="2873"
     inkscape:window-y="0"
     inkscape:window-maximized="0"
     inkscape:current-layer="svg10" />
  <defs
     id="defs14" />
  <metadata
     id="metadata2">
Created by potrace 1.14, written by Peter Selinger 2001-2017
<rdf:RDF>
  <cc:Work
     rdf:about="">
    <dc:format>image/svg+xml</dc:format>
    <dc:type
       rdf:resource="http://purl.org/dc/dcmitype/StillImage" />
    <dc:title></dc:title>
  </cc:Work>
</rdf:RDF>
</metadata>
  <g
     style="fill:#000000;stroke:none"
     id="g8"
     transform="matrix(0.08158482,0,0,-0.10284329,26.477581,226.22395)">
    <path
       id="path4"
       d="m 1151,2045 c -28,-89 -28,-146 0,-171 17,-15 33,-18 83,-16 76,4 92,19 107,96 8,48 8,64 -5,91 -22,46 -36,54 -104,61 l -60,7 z"
       inkscape:connector-curvature="0" />
    <path
       id="path6"
       d="m 1105,1707 c -3,-7 -7,-51 -9,-97 -2,-59 -9,-99 -23,-130 -52,-114 -103,-243 -103,-262 0,-12 -14,-46 -30,-75 -17,-30 -39,-76 -50,-103 -11,-27 -35,-70 -55,-96 -20,-26 -47,-68 -61,-93 -14,-25 -35,-60 -47,-78 -12,-17 -38,-60 -57,-95 -35,-62 -174,-213 -218,-237 -19,-10 -20,-15 -11,-32 13,-25 83,-58 121,-59 22,0 32,8 47,37 10,21 31,49 45,62 14,14 26,34 26,45 0,12 9,27 20,34 11,6 27,29 35,49 9,21 25,48 37,60 11,12 17,26 14,32 -4,6 -4,26 -1,45 5,25 14,37 36,46 16,7 29,20 29,30 0,10 7,23 15,30 8,7 15,18 15,25 0,25 53,114 77,130 31,21 72,114 66,149 -3,14 1,36 9,48 8,13 25,63 38,111 13,48 27,84 31,80 14,-15 29,-137 29,-244 0,-124 7,-169 26,-169 14,0 16,-11 15,-85 -1,-86 52,-217 111,-272 37,-35 88,-52 193,-63 133,-15 215,16 270,103 9,15 23,27 30,27 6,0 25,15 42,33 40,44 123,168 123,184 0,16 -62,5 -72,-13 -52,-86 -144,-168 -253,-224 -105,-55 -165,-52 -165,6 0,13 -5,26 -10,29 -6,3 -28,33 -50,65 l -39,58 -5,145 c -2,80 -7,150 -10,156 -4,6 -15,68 -26,139 -10,71 -25,144 -33,163 -12,31 -12,37 6,67 18,30 19,39 8,88 -9,38 -20,59 -37,71 -17,11 -21,19 -14,28 7,8 5,17 -8,28 -37,34 -118,49 -127,24 z"
       inkscape:connector-curvature="0" />
  </g>
</svg>
