<?xml version="1.0" encoding="UTF-8" standalone="no"?>
<!-- Created with Inkscape (http://www.inkscape.org/) -->

<svg
   xmlns:dc="http://purl.org/dc/elements/1.1/"
   xmlns:cc="http://creativecommons.org/ns#"
   xmlns:rdf="http://www.w3.org/1999/02/22-rdf-syntax-ns#"
   xmlns:svg="http://www.w3.org/2000/svg"
   xmlns="http://www.w3.org/2000/svg"
   xmlns:sodipodi="http://sodipodi.sourceforge.net/DTD/sodipodi-0.dtd"
   xmlns:inkscape="http://www.inkscape.org/namespaces/inkscape"
   id="SVGRoot"
   width="190mm"
   height="190mm"
   version="1.1"
   viewBox="0 0 190 190"
   sodipodi:docname="login.svg"
   inkscape:version="0.92.1 r15371">
  <defs
     id="defs59" />
  <sodipodi:namedview
     pagecolor="#ffffff"
     bordercolor="#666666"
     borderopacity="1"
     objecttolerance="10"
     gridtolerance="10"
     guidetolerance="10"
     inkscape:pageopacity="0"
     inkscape:pageshadow="2"
     inkscape:window-width="958"
     inkscape:window-height="1008"
     id="namedview57"
     showgrid="false"
     inkscape:zoom="0.23329814"
     inkscape:cx="476.39943"
     inkscape:cy="700.07662"
     inkscape:window-x="2873"
     inkscape:window-y="0"
     inkscape:window-maximized="0"
     inkscape:current-layer="g4553" />
  <metadata
     id="metadata10">
    <rdf:RDF>
      <cc:Work
         rdf:about="">
        <dc:format>image/svg+xml</dc:format>
        <dc:type
           rdf:resource="http://purl.org/dc/dcmitype/StillImage" />
        <dc:title></dc:title>
      </cc:Work>
    </rdf:RDF>
  </metadata>
  <g
     id="g4553"
     transform="matrix(0.92907683,0,0,0.85784091,3.8658362,105.58229)">
    <g
       transform="matrix(3.4826993,0,0,4.1367845,-265.88732,-208.37243)"
       id="g42"
       style="fill:#e19c14;stroke-width:0.068161">
      <path
         class="cls-1"
         d="m 131.47,45.935 c 0.0694,-0.11028 0.13628,-0.22146 0.20209,-0.33174 0.0223,-0.0529 0.044,-0.1067 0.0674,-0.1587 v -2.7526 h -46.648 v 3.3174 h 46.187 a 1.0757,1.8614 0 0 1 0.19121,-0.07442 z"
         id="path12"
         inkscape:connector-curvature="0" />
      <path
         class="cls-1"
         d="m 131.53,46.031 c 0.13369,-0.21519 0.28292,-0.38644 0.29225,-0.70922 0.008,-0.30036 0,-0.60521 0,-0.90557 v -1.7242 a 0.078762,0.13628 0 0 0 -0.0777,-0.13449 h -44.752 c -0.60471,0 -1.2136,-0.03317 -1.8183,0 h -0.07721 a 0.078762,0.13628 0 0 0 -0.07773,0.13449 v 3.3174 a 0.078762,0.13628 0 0 0 0.07773,0.13449 h 44.363 c 0.58398,0 1.1757,0.05021 1.7618,0 a 2.1401,3.703 0 0 0 0.27619,-0.0789 c 0.0984,-0.02958 0.0565,-0.2896 -0.0415,-0.25912 -0.45392,0.13808 -0.93272,0.06904 -1.3939,0.06904 h -44.273 c -0.19587,0 -0.42076,-0.0538 -0.61507,0 a 0.51817,0.89661 0 0 1 -0.07824,0 l 0.07773,0.13449 v -3.3174 l -0.07773,0.13449 h 45.947 c 0.19742,0 0.42853,0.05738 0.62181,0 a 0.48242,0.83474 0 0 1 0.0772,0 l -0.0777,-0.13449 v 2.4316 a 0.68244,1.1808 0 0 1 0,0.2645 c -0.0254,0.16498 -0.16737,0.32457 -0.24665,0.4483 -0.0793,0.12373 0.0388,0.30754 0.11193,0.19456 z"
         id="path14"
         inkscape:connector-curvature="0" />
      <path
         class="cls-1"
         d="m 131.47,45.935 q 0.058,-0.08966 0.114,-0.1838 V 42.692 H 84.936 v 3.3174 h 46.342 a 1.0757,1.8614 0 0 1 0.19121,-0.07442 z"
         id="path16"
         inkscape:connector-curvature="0" />
      <path
         class="cls-1"
         d="m 131.53,46.031 c 0.13369,-0.21429 0.13679,-0.24298 0.13679,-0.52272 v -2.8162 a 0.078762,0.13628 0 0 0 -0.0777,-0.13449 h -44.752 c -0.60471,0 -1.2136,-0.03317 -1.8183,0 h -0.07721 a 0.078762,0.13628 0 0 0 -0.07773,0.13449 v 3.3174 a 0.078762,0.13628 0 0 0 0.07773,0.13449 h 44.524 c 0.58243,0 1.1732,0.04752 1.7551,0 a 2.1043,3.6411 0 0 0 0.27566,-0.0789 c 0.0985,-0.02958 0.0565,-0.2896 -0.0415,-0.25912 -0.45288,0.13808 -0.9296,0.06904 -1.3908,0.06904 h -44.423 c -0.19794,0 -0.4249,-0.0538 -0.62181,0 a 0.51817,0.89661 0 0 1 -0.07773,0 l 0.07773,0.13449 v -3.3174 l -0.07773,0.13449 h 45.947 c 0.19743,0 0.42854,0.05738 0.62181,0 a 0.48242,0.83474 0 0 1 0.0772,0 l -0.0777,-0.13449 v 2.6136 a 1.0944,1.8936 0 0 1 0,0.33264 c -0.0176,0.16049 0.003,0.05111 -0.0912,0.20174 -0.072,0.11835 0.0383,0.30395 0.11141,0.19098 z"
         id="path18"
         inkscape:connector-curvature="0" />
      <path
         class="cls-1"
         d="m 131.47,45.935 c 0.0694,-0.11028 0.13628,-0.22146 0.20209,-0.33174 0.0223,-0.0529 0.044,-0.1067 0.0674,-0.1587 v -2.7526 h -46.648 v 3.3174 h 46.187 a 1.0757,1.8614 0 0 1 0.19121,-0.07442 z"
         id="path20"
         inkscape:connector-curvature="0" />
      <path
         class="cls-1"
         d="m 131.53,46.031 c 0.13369,-0.21519 0.28292,-0.38644 0.29225,-0.70922 0.008,-0.30036 0,-0.60521 0,-0.90557 v -1.7242 a 0.078762,0.13628 0 0 0 -0.0777,-0.13449 h -44.752 c -0.60471,0 -1.2136,-0.03317 -1.8183,0 h -0.07721 a 0.078762,0.13628 0 0 0 -0.07773,0.13449 v 3.3174 a 0.078762,0.13628 0 0 0 0.07773,0.13449 h 44.363 c 0.58398,0 1.1757,0.05021 1.7618,0 a 2.1401,3.703 0 0 0 0.27619,-0.0789 c 0.0984,-0.02958 0.0565,-0.2896 -0.0415,-0.25912 -0.45392,0.13808 -0.93272,0.06904 -1.3939,0.06904 h -44.273 c -0.19587,0 -0.42076,-0.0538 -0.61507,0 a 0.51817,0.89661 0 0 1 -0.07824,0 l 0.07773,0.13449 v -3.3174 l -0.07773,0.13449 h 45.947 c 0.19742,0 0.42853,0.05738 0.62181,0 a 0.48242,0.83474 0 0 1 0.0772,0 l -0.0777,-0.13449 v 2.4316 a 0.68244,1.1808 0 0 1 0,0.2645 c -0.0254,0.16498 -0.16737,0.32457 -0.24665,0.4483 -0.0793,0.12373 0.0388,0.30754 0.11193,0.19456 z"
         id="path22"
         inkscape:connector-curvature="0" />
      <path
         class="cls-1"
         d="m 131.47,45.935 c 0.0694,-0.11028 0.13628,-0.22146 0.20209,-0.33174 0.0223,-0.0529 0.044,-0.1067 0.0674,-0.1587 v -2.7526 h -46.648 v 3.3174 h 46.187 a 1.0757,1.8614 0 0 1 0.19121,-0.07442 z"
         id="path24"
         inkscape:connector-curvature="0" />
      <path
         class="cls-1"
         d="m 131.53,46.031 c 0.13369,-0.21519 0.28292,-0.38644 0.29225,-0.70922 0.008,-0.30036 0,-0.60521 0,-0.90557 v -1.7242 a 0.078762,0.13628 0 0 0 -0.0777,-0.13449 h -44.752 c -0.60471,0 -1.2136,-0.03317 -1.8183,0 h -0.07721 a 0.078762,0.13628 0 0 0 -0.07773,0.13449 v 3.3174 a 0.078762,0.13628 0 0 0 0.07773,0.13449 h 44.363 c 0.58398,0 1.1757,0.05021 1.7618,0 a 2.1401,3.703 0 0 0 0.27619,-0.0789 c 0.0984,-0.02958 0.0565,-0.2896 -0.0415,-0.25912 -0.45392,0.13808 -0.93272,0.06904 -1.3939,0.06904 h -44.273 c -0.19587,0 -0.42076,-0.0538 -0.61507,0 a 0.51817,0.89661 0 0 1 -0.07824,0 l 0.07773,0.13449 v -3.3174 l -0.07773,0.13449 h 45.947 c 0.19742,0 0.42853,0.05738 0.62181,0 a 0.48242,0.83474 0 0 1 0.0772,0 l -0.0777,-0.13449 v 2.4316 a 0.68244,1.1808 0 0 1 0,0.2645 c -0.0254,0.16498 -0.16737,0.32457 -0.24665,0.4483 -0.0793,0.12373 0.0388,0.30754 0.11193,0.19456 z"
         id="path26"
         inkscape:connector-curvature="0" />
      <path
         class="cls-1"
         d="m 131.47,45.935 c 0.0694,-0.11028 0.13628,-0.22146 0.20209,-0.33174 0.0223,-0.0529 0.044,-0.1067 0.0674,-0.1587 v -2.7526 h -46.648 v 3.3174 h 46.187 a 1.0757,1.8614 0 0 1 0.19121,-0.07442 z"
         id="path28"
         inkscape:connector-curvature="0" />
      <path
         class="cls-1"
         d="m 131.53,46.031 c 0.13369,-0.21519 0.28292,-0.38644 0.29225,-0.70922 0.008,-0.30036 0,-0.60521 0,-0.90557 v -1.7242 a 0.078762,0.13628 0 0 0 -0.0777,-0.13449 h -44.752 c -0.60471,0 -1.2136,-0.03317 -1.8183,0 h -0.07721 a 0.078762,0.13628 0 0 0 -0.07773,0.13449 v 3.3174 a 0.078762,0.13628 0 0 0 0.07773,0.13449 h 44.363 c 0.58398,0 1.1757,0.05021 1.7618,0 a 2.1401,3.703 0 0 0 0.27619,-0.0789 c 0.0984,-0.02958 0.0565,-0.2896 -0.0415,-0.25912 -0.45392,0.13808 -0.93272,0.06904 -1.3939,0.06904 h -44.273 c -0.19587,0 -0.42076,-0.0538 -0.61507,0 a 0.51817,0.89661 0 0 1 -0.07824,0 l 0.07773,0.13449 v -3.3174 l -0.07773,0.13449 h 45.947 c 0.19742,0 0.42853,0.05738 0.62181,0 a 0.48242,0.83474 0 0 1 0.0772,0 l -0.0777,-0.13449 v 2.4316 a 0.68244,1.1808 0 0 1 0,0.2645 c -0.0254,0.16498 -0.16737,0.32457 -0.24665,0.4483 -0.0793,0.12373 0.0388,0.30754 0.11193,0.19456 z"
         id="path30"
         inkscape:connector-curvature="0" />
      <path
         class="cls-1"
         d="m 131.47,45.935 c 0.0694,-0.11028 0.13628,-0.22146 0.20209,-0.33174 0.0223,-0.0529 0.044,-0.1067 0.0674,-0.1587 v -2.7526 h -46.648 v 3.3174 h 46.187 a 1.0757,1.8614 0 0 1 0.19121,-0.07442 z"
         id="path32"
         inkscape:connector-curvature="0" />
      <path
         class="cls-1"
         d="m 131.53,46.031 c 0.13369,-0.21519 0.28292,-0.38644 0.29225,-0.70922 0.008,-0.30036 0,-0.60521 0,-0.90557 v -1.7242 a 0.078762,0.13628 0 0 0 -0.0777,-0.13449 h -44.752 c -0.60471,0 -1.2136,-0.03317 -1.8183,0 h -0.07721 a 0.078762,0.13628 0 0 0 -0.07773,0.13449 v 3.3174 a 0.078762,0.13628 0 0 0 0.07773,0.13449 h 44.363 c 0.58398,0 1.1757,0.05021 1.7618,0 a 2.1401,3.703 0 0 0 0.27619,-0.0789 c 0.0984,-0.02958 0.0565,-0.2896 -0.0415,-0.25912 -0.45392,0.13808 -0.93272,0.06904 -1.3939,0.06904 h -44.273 c -0.19587,0 -0.42076,-0.0538 -0.61507,0 a 0.51817,0.89661 0 0 1 -0.07824,0 l 0.07773,0.13449 v -3.3174 l -0.07773,0.13449 h 45.947 c 0.19742,0 0.42853,0.05738 0.62181,0 a 0.48242,0.83474 0 0 1 0.0772,0 l -0.0777,-0.13449 v 2.4316 a 0.68244,1.1808 0 0 1 0,0.2645 c -0.0254,0.16498 -0.16737,0.32457 -0.24665,0.4483 -0.0793,0.12373 0.0388,0.30754 0.11193,0.19456 z"
         id="path34"
         inkscape:connector-curvature="0" />
      <path
         class="cls-1"
         d="m 131.45,39.834 a 1.0939,1.8927 0 0 1 -0.10363,-0.2376 1.1032,1.9089 0 0 1 -0.10052,-0.22146 h -46.305 v 3.3174 h 46.648 v -2.3904 a 2.1613,3.7397 0 0 1 -0.13888,-0.46803 z"
         id="path36"
         inkscape:connector-curvature="0" />
      <path
         class="cls-1"
         d="m 131.5,39.739 c -0.10363,-0.21788 -0.15234,-0.47072 -0.3109,-0.49851 -0.0684,-0.01166 -0.14095,0 -0.20727,0 h -44.148 c -0.60523,0 -1.2141,-0.03317 -1.8193,0 H 84.9368 a 0.078762,0.13628 0 0 0 -0.07773,0.13449 v 3.3174 a 0.078762,0.13628 0 0 0 0.07773,0.13449 h 44.752 c 0.60471,0 1.2136,0.03317 1.8183,0 h 0.0772 a 0.078762,0.13628 0 0 0 0.0777,-0.13449 v -2.2442 c 0,-0.26091 -0.0871,-0.44113 -0.14923,-0.68142 -0.041,-0.1578 -0.17462,-0.02062 -0.13421,0.13539 0.0668,0.25912 0.12799,0.37658 0.12799,0.64914 v 2.1411 l 0.0777,-0.13449 h -45.948 c -0.19742,0 -0.42853,-0.05738 -0.62181,0 a 0.48242,0.83474 0 0 1 -0.07721,0 l 0.07773,0.13449 v -3.3174 l -0.07825,0.13449 h 45.659 c 0.17566,0 0.41454,-0.07263 0.58398,0 0.014,0.0063 0.0357,-0.0099 0.0487,0 h 0.009 c 0.013,0.01255 -0.10364,-0.10042 -0.008,0.02331 0.0274,0.03586 0.11918,0.31023 0.16063,0.3963 0.0648,0.1327 0.17411,-0.06097 0.11037,-0.19008 z"
         id="path38"
         inkscape:connector-curvature="0" />
      <ellipse
         class="cls-2"
         cx="131.13"
         cy="42.737"
         rx="2.0467999"
         ry="3.4519"
         stroke-miterlimit="10"
         id="ellipse40"
         style="stroke:#e19c14;stroke-miterlimit:10" />
    </g>
    <path
       class="cls-3"
       d="m 191.18213,-45.486538 a 0.80307563,1.6505356 0 0 0 -0.34095,-0.229964 c -0.23822,-0.04824 -0.49089,0 -0.72186,0 H 36.36511 c -2.107835,0 -4.228346,-0.137217 -6.336076,0 h -0.27071 a 0.27430436,0.56376099 0 0 0 -0.27071,0.556356 v 27.447151 a 0.27430436,0.56376099 0 0 0 0.27071,0.556357 H 184.80461 c 1.64583,0 3.30972,0.133535 4.96111,0.07421 a 7.3718295,15.151387 0 0 0 0.87704,0.111279 c 3.9379,0 7.1284,-6.394641 7.1284,-14.279766 0,-7.525639 -2.90548,-13.686552 -6.58683,-14.235503 z"
       id="path44"
       inkscape:connector-curvature="0"
       style="fill:#fbae17;stroke:#000000;stroke-width:0.98092026" />
    <path
       class="cls-4"
       d="m 29.414234,-61.56622 a 22.581474,46.410585 0 0 1 -4.952051,2.722459 29.729713,61.104444 0 0 1 -8.135238,1.832265 c -4.755276,0 -9.5969252,-1.546661 -13.9969674,-5.37451 L 0.64623176,-51.729649 A 29.199299,60.012333 0 0 0 11.253838,15.368995 l 4.555021,6.798806 4.555023,-6.798806 a 29.199299,60.012333 0 0 0 10.607605,-67.098644 z"
       id="path46"
       inkscape:connector-curvature="0"
       style="fill:#fbae17;stroke:#000000;stroke-width:0.98092026" />
    <path
       class="cls-5"
       d="m 25.482266,-49.53645 a 16.03783,32.962313 0 0 1 -3.517178,1.932416 21.114213,43.394869 0 0 1 -5.775013,1.301887 c -3.376476,0 -6.8159885,-1.112712 -9.939971,-3.816638 l -1.1964814,7.566592 A 20.737037,42.621291 0 0 0 12.586352,5.1035636 l 3.233931,4.821836 3.233931,-4.821836 a 20.737037,42.621291 0 0 0 7.537953,-47.6557566 z"
       id="path48"
       inkscape:connector-curvature="0"
       style="fill:#e6e6e6;stroke:#000000;stroke-width:0.98092026" />
    <path
       class="cls-3"
       d="m 30.967517,-51.728946 -1.553806,-9.832723 a 22.581474,46.410585 0 0 1 -4.952049,2.722459 29.729713,61.104444 0 0 1 -8.135239,1.832264 c -4.755277,0 -9.5972739,-1.546661 -13.9969679,-5.37451 L 0.64393315,-51.728822 A 29.199299,60.012333 0 0 0 11.251539,15.369823 l 4.555023,6.798805 4.555021,-6.798805 a 29.199299,60.012333 0 0 0 10.605865,-67.098645 z"
       id="path50"
       inkscape:connector-curvature="0"
       style="fill:none;stroke:#808080;stroke-width:0.25871724" />
    <text
       class="cls-6"
       transform="scale(0.69753703,1.4336156)"
       x="90.644661"
       y="23.030657"
       font-size="11.928px"
       font-weight="700"
       letter-spacing=".02em"
       stroke-miterlimit="10"
       id="text52"
       style="font-weight:700;font-size:45.27470779px;font-family:AgencyFB-Bold, 'Agency FB';letter-spacing:0.02em;fill:#fbae17;stroke:#000000;stroke-width:0.98092026;stroke-miterlimit:10">LOGIN HERE</text>
  </g>
</svg>
