<?xml version="1.0" encoding="UTF-8" standalone="no"?>
<svg
   xmlns:dc="http://purl.org/dc/elements/1.1/"
   xmlns:cc="http://creativecommons.org/ns#"
   xmlns:rdf="http://www.w3.org/1999/02/22-rdf-syntax-ns#"
   xmlns:svg="http://www.w3.org/2000/svg"
   xmlns="http://www.w3.org/2000/svg"
   xmlns:xlink="http://www.w3.org/1999/xlink"
   xmlns:sodipodi="http://sodipodi.sourceforge.net/DTD/sodipodi-0.dtd"
   xmlns:inkscape="http://www.inkscape.org/namespaces/inkscape"
   height="250"
   width="251"
   xml:space="preserve"
   viewBox="0 0 251 250"
   y="0px"
   x="0px"
   id="Layer_1"
   version="1.1"
   sodipodi:docname="messaging.svg"
   inkscape:version="0.92.1 r15371"><sodipodi:namedview
     pagecolor="#ffffff"
     bordercolor="#666666"
     borderopacity="1"
     objecttolerance="10"
     gridtolerance="10"
     guidetolerance="10"
     inkscape:pageopacity="0"
     inkscape:pageshadow="2"
     inkscape:window-width="958"
     inkscape:window-height="1008"
     id="namedview4699"
     showgrid="false"
     inkscape:zoom="0.9874477"
     inkscape:cx="119.5"
     inkscape:cy="119.5"
     inkscape:window-x="2873"
     inkscape:window-y="0"
     inkscape:window-maximized="0"
     inkscape:current-layer="Layer_1" /><metadata
     id="metadata11264"><rdf:RDF><cc:Work
         rdf:about=""><dc:format>image/svg+xml</dc:format><dc:type
           rdf:resource="http://purl.org/dc/dcmitype/StillImage" /><dc:title></dc:title></cc:Work></rdf:RDF></metadata><defs
     id="defs11262"><defs
       id="defs11102"><rect
         id="SVGID_1_"
         width="200"
         height="200"
         x="0"
         y="0" /></defs><clipPath
       id="SVGID_2_"><use
         xlink:href="#SVGID_1_"
         style="overflow:visible"
         id="use11104"
         x="0"
         y="0"
         width="100%"
         height="100%" /></clipPath><clipPath
       id="SVGID_2_-7"><use
         id="use8515"
         style="overflow:visible"
         xlink:href="#SVGID_1_"
         x="0"
         y="0"
         width="100%"
         height="100%" /></clipPath><clipPath
       id="clipPath4580"><use
         id="use4578"
         style="overflow:visible"
         xlink:href="#SVGID_1_"
         x="0"
         y="0"
         width="100%"
         height="100%" /></clipPath><clipPath
       id="clipPath4584"><use
         id="use4582"
         style="overflow:visible"
         xlink:href="#SVGID_1_"
         x="0"
         y="0"
         width="100%"
         height="100%" /></clipPath><clipPath
       id="clipPath4588"><use
         id="use4586"
         style="overflow:visible"
         xlink:href="#SVGID_1_"
         x="0"
         y="0"
         width="100%"
         height="100%" /></clipPath><clipPath
       id="clipPath4592"><use
         id="use4590"
         style="overflow:visible"
         xlink:href="#SVGID_1_"
         x="0"
         y="0"
         width="100%"
         height="100%" /></clipPath><clipPath
       id="clipPath4596"><use
         id="use4594"
         style="overflow:visible"
         xlink:href="#SVGID_1_"
         x="0"
         y="0"
         width="100%"
         height="100%" /></clipPath><clipPath
       id="clipPath4600"><use
         id="use4598"
         style="overflow:visible"
         xlink:href="#SVGID_1_"
         x="0"
         y="0"
         width="100%"
         height="100%" /></clipPath><clipPath
       id="clipPath4604"><use
         id="use4602"
         style="overflow:visible"
         xlink:href="#SVGID_1_"
         x="0"
         y="0"
         width="100%"
         height="100%" /></clipPath><clipPath
       id="clipPath4608"><use
         id="use4606"
         style="overflow:visible"
         xlink:href="#SVGID_1_"
         x="0"
         y="0"
         width="100%"
         height="100%" /></clipPath><clipPath
       id="clipPath4612"><use
         id="use4610"
         style="overflow:visible"
         xlink:href="#SVGID_1_"
         x="0"
         y="0"
         width="100%"
         height="100%" /></clipPath><clipPath
       id="clipPath4616"><use
         id="use4614"
         style="overflow:visible"
         xlink:href="#SVGID_1_"
         x="0"
         y="0"
         width="100%"
         height="100%" /></clipPath><clipPath
       id="clipPath4620"><use
         id="use4618"
         style="overflow:visible"
         xlink:href="#SVGID_1_"
         x="0"
         y="0"
         width="100%"
         height="100%" /></clipPath><clipPath
       id="clipPath4624"><use
         id="use4622"
         style="overflow:visible"
         xlink:href="#SVGID_1_"
         x="0"
         y="0"
         width="100%"
         height="100%" /></clipPath><clipPath
       id="clipPath4628"><use
         id="use4626"
         style="overflow:visible"
         xlink:href="#SVGID_1_"
         x="0"
         y="0"
         width="100%"
         height="100%" /></clipPath><clipPath
       id="clipPath4632"><use
         id="use4630"
         style="overflow:visible"
         xlink:href="#SVGID_1_"
         x="0"
         y="0"
         width="100%"
         height="100%" /></clipPath><clipPath
       id="clipPath4636"><use
         id="use4634"
         style="overflow:visible"
         xlink:href="#SVGID_1_"
         x="0"
         y="0"
         width="100%"
         height="100%" /></clipPath><clipPath
       id="clipPath4640"><use
         id="use4638"
         style="overflow:visible"
         xlink:href="#SVGID_1_"
         x="0"
         y="0"
         width="100%"
         height="100%" /></clipPath><clipPath
       id="clipPath4644"><use
         id="use4642"
         style="overflow:visible"
         xlink:href="#SVGID_1_"
         x="0"
         y="0"
         width="100%"
         height="100%" /></clipPath><clipPath
       id="clipPath4648"><use
         id="use4646"
         style="overflow:visible"
         xlink:href="#SVGID_1_"
         x="0"
         y="0"
         width="100%"
         height="100%" /></clipPath><clipPath
       id="clipPath4652"><use
         id="use4650"
         style="overflow:visible"
         xlink:href="#SVGID_1_"
         x="0"
         y="0"
         width="100%"
         height="100%" /></clipPath><clipPath
       id="clipPath4656"><use
         id="use4654"
         style="overflow:visible"
         xlink:href="#SVGID_1_"
         x="0"
         y="0"
         width="100%"
         height="100%" /></clipPath><clipPath
       id="clipPath4660"><use
         id="use4658"
         style="overflow:visible"
         xlink:href="#SVGID_1_"
         x="0"
         y="0"
         width="100%"
         height="100%" /></clipPath><clipPath
       id="clipPath4664"><use
         id="use4662"
         style="overflow:visible"
         xlink:href="#SVGID_1_"
         x="0"
         y="0"
         width="100%"
         height="100%" /></clipPath><clipPath
       id="clipPath4668"><use
         id="use4666"
         style="overflow:visible"
         xlink:href="#SVGID_1_"
         x="0"
         y="0"
         width="100%"
         height="100%" /></clipPath><clipPath
       id="clipPath4672"><use
         id="use4670"
         style="overflow:visible"
         xlink:href="#SVGID_1_"
         x="0"
         y="0"
         width="100%"
         height="100%" /></clipPath><clipPath
       id="clipPath4676"><use
         id="use4674"
         style="overflow:visible"
         xlink:href="#SVGID_1_"
         x="0"
         y="0"
         width="100%"
         height="100%" /></clipPath><clipPath
       id="clipPath4680"><use
         id="use4678"
         style="overflow:visible"
         xlink:href="#SVGID_1_"
         x="0"
         y="0"
         width="100%"
         height="100%" /></clipPath><clipPath
       id="clipPath4684"><use
         id="use4682"
         style="overflow:visible"
         xlink:href="#SVGID_1_"
         x="0"
         y="0"
         width="100%"
         height="100%" /></clipPath><clipPath
       id="clipPath4688"><use
         id="use4686"
         style="overflow:visible"
         xlink:href="#SVGID_1_"
         x="0"
         y="0"
         width="100%"
         height="100%" /></clipPath><clipPath
       id="clipPath4692"><use
         id="use4690"
         style="overflow:visible"
         xlink:href="#SVGID_1_"
         x="0"
         y="0"
         width="100%"
         height="100%" /></clipPath><clipPath
       id="clipPath4696"><use
         id="use4694"
         style="overflow:visible"
         xlink:href="#SVGID_1_"
         x="0"
         y="0"
         width="100%"
         height="100%" /></clipPath><clipPath
       id="clipPath4700"><use
         id="use4698"
         style="overflow:visible"
         xlink:href="#SVGID_1_"
         x="0"
         y="0"
         width="100%"
         height="100%" /></clipPath><clipPath
       id="clipPath4704"><use
         id="use4702"
         style="overflow:visible"
         xlink:href="#SVGID_1_"
         x="0"
         y="0"
         width="100%"
         height="100%" /></clipPath><clipPath
       id="clipPath4708"><use
         id="use4706"
         style="overflow:visible"
         xlink:href="#SVGID_1_"
         x="0"
         y="0"
         width="100%"
         height="100%" /></clipPath><clipPath
       id="clipPath4712"><use
         id="use4710"
         style="overflow:visible"
         xlink:href="#SVGID_1_"
         x="0"
         y="0"
         width="100%"
         height="100%" /></clipPath><clipPath
       id="clipPath4716"><use
         id="use4714"
         style="overflow:visible"
         xlink:href="#SVGID_1_"
         x="0"
         y="0"
         width="100%"
         height="100%" /></clipPath><clipPath
       id="clipPath4720"><use
         id="use4718"
         style="overflow:visible"
         xlink:href="#SVGID_1_"
         x="0"
         y="0"
         width="100%"
         height="100%" /></clipPath><clipPath
       id="clipPath4724"><use
         id="use4722"
         style="overflow:visible"
         xlink:href="#SVGID_1_"
         x="0"
         y="0"
         width="100%"
         height="100%" /></clipPath><clipPath
       id="clipPath4728"><use
         id="use4726"
         style="overflow:visible"
         xlink:href="#SVGID_1_"
         x="0"
         y="0"
         width="100%"
         height="100%" /></clipPath><clipPath
       id="clipPath4732"><use
         id="use4730"
         style="overflow:visible"
         xlink:href="#SVGID_1_"
         x="0"
         y="0"
         width="100%"
         height="100%" /></clipPath><clipPath
       id="clipPath4736"><use
         id="use4734"
         style="overflow:visible"
         xlink:href="#SVGID_1_"
         x="0"
         y="0"
         width="100%"
         height="100%" /></clipPath><clipPath
       id="clipPath4740"><use
         id="use4738"
         style="overflow:visible"
         xlink:href="#SVGID_1_"
         x="0"
         y="0"
         width="100%"
         height="100%" /></clipPath><clipPath
       id="clipPath4744"><use
         id="use4742"
         style="overflow:visible"
         xlink:href="#SVGID_1_"
         x="0"
         y="0"
         width="100%"
         height="100%" /></clipPath><clipPath
       id="clipPath4748"><use
         id="use4746"
         style="overflow:visible"
         xlink:href="#SVGID_1_"
         x="0"
         y="0"
         width="100%"
         height="100%" /></clipPath><clipPath
       id="clipPath4752"><use
         id="use4750"
         style="overflow:visible"
         xlink:href="#SVGID_1_"
         x="0"
         y="0"
         width="100%"
         height="100%" /></clipPath><clipPath
       id="clipPath4756"><use
         id="use4754"
         style="overflow:visible"
         xlink:href="#SVGID_1_"
         x="0"
         y="0"
         width="100%"
         height="100%" /></clipPath><clipPath
       id="clipPath4760"><use
         id="use4758"
         style="overflow:visible"
         xlink:href="#SVGID_1_"
         x="0"
         y="0"
         width="100%"
         height="100%" /></clipPath><clipPath
       id="clipPath4764"><use
         id="use4762"
         style="overflow:visible"
         xlink:href="#SVGID_1_"
         x="0"
         y="0"
         width="100%"
         height="100%" /></clipPath><clipPath
       id="clipPath4768"><use
         id="use4766"
         style="overflow:visible"
         xlink:href="#SVGID_1_"
         x="0"
         y="0"
         width="100%"
         height="100%" /></clipPath><clipPath
       id="clipPath4772"><use
         id="use4770"
         style="overflow:visible"
         xlink:href="#SVGID_1_"
         x="0"
         y="0"
         width="100%"
         height="100%" /></clipPath><clipPath
       id="clipPath4776"><use
         id="use4774"
         style="overflow:visible"
         xlink:href="#SVGID_1_"
         x="0"
         y="0"
         width="100%"
         height="100%" /></clipPath><clipPath
       id="clipPath4780"><use
         id="use4778"
         style="overflow:visible"
         xlink:href="#SVGID_1_"
         x="0"
         y="0"
         width="100%"
         height="100%" /></clipPath><clipPath
       id="clipPath4784"><use
         id="use4782"
         style="overflow:visible"
         xlink:href="#SVGID_1_"
         x="0"
         y="0"
         width="100%"
         height="100%" /></clipPath><clipPath
       id="clipPath4788"><use
         id="use4786"
         style="overflow:visible"
         xlink:href="#SVGID_1_"
         x="0"
         y="0"
         width="100%"
         height="100%" /></clipPath><clipPath
       id="clipPath4792"><use
         id="use4790"
         style="overflow:visible"
         xlink:href="#SVGID_1_"
         x="0"
         y="0"
         width="100%"
         height="100%" /></clipPath><clipPath
       id="clipPath4796"><use
         id="use4794"
         style="overflow:visible"
         xlink:href="#SVGID_1_"
         x="0"
         y="0"
         width="100%"
         height="100%" /></clipPath><clipPath
       id="clipPath4800"><use
         id="use4798"
         style="overflow:visible"
         xlink:href="#SVGID_1_"
         x="0"
         y="0"
         width="100%"
         height="100%" /></clipPath><clipPath
       id="clipPath4804"><use
         id="use4802"
         style="overflow:visible"
         xlink:href="#SVGID_1_"
         x="0"
         y="0"
         width="100%"
         height="100%" /></clipPath><clipPath
       id="clipPath4808"><use
         id="use4806"
         style="overflow:visible"
         xlink:href="#SVGID_1_"
         x="0"
         y="0"
         width="100%"
         height="100%" /></clipPath><clipPath
       id="clipPath4812"><use
         id="use4810"
         style="overflow:visible"
         xlink:href="#SVGID_1_"
         x="0"
         y="0"
         width="100%"
         height="100%" /></clipPath></defs><style
     id="style11095"
     type="text/css">
	.st0{fill:#FFFFFF;}
	.st1{fill:none;stroke:#000000;stroke-width:2;stroke-miterlimit:10;}
	.st2{clip-path:url(#SVGID_2_);fill:none;stroke:#2B2B2B;stroke-width:0.25;stroke-miterlimit:10;}
	.st3{clip-path:url(#SVGID_2_);fill:none;stroke:#2B2B2B;stroke-miterlimit:10;}
	.st4{clip-path:url(#SVGID_2_);fill:none;stroke:#593D21;stroke-width:0.25;stroke-miterlimit:10;}
	.st5{clip-path:url(#SVGID_2_);fill:#FFFFFF;}
	.st6{clip-path:url(#SVGID_2_);fill:none;stroke:#000000;stroke-miterlimit:10;}
	.st7{clip-path:url(#SVGID_2_);}
	.st8{fill:none;}
	.st9{fill:#FF7900;}
	.st10{fill:none;stroke:#FF7900;stroke-miterlimit:10;}
	.st11{fill:none;stroke:#E19C14;stroke-miterlimit:10;}
	.st12{fill:none;stroke:#000000;stroke-miterlimit:10;}
	.st13{fill:#E19C14;}
	.st14{fill:none;stroke:#444444;stroke-miterlimit:10;}
	.st15{fill:none;stroke:#000000;stroke-width:0.25;stroke-miterlimit:10;}
	.st16{fill:none;stroke:#E19C14;stroke-width:3;stroke-miterlimit:10;}
	.st17{fill:none;stroke:#E19C14;stroke-width:1.25;stroke-miterlimit:10;}
</style><g
     transform="matrix(1,0,0,1.2746047,3.3898305,41.011778)"
     class="st7"
     clip-path="url(#SVGID_2_)"
     id="g11143"><polygon
       class="st8"
       points="173.1,110.7 166.9,62.3 72.6,99 "
       id="polygon11141"
       style="fill:none" /></g><rect
     style="opacity:1;fill:#ffffff;fill-opacity:1;stroke:#000000;stroke-width:0.79837835;stroke-miterlimit:4;stroke-dasharray:none"
     id="rect11011"
     width="17.77775"
     height="75.724617"
     x="152.47281"
     y="75.393616"
     transform="matrix(0.95819874,0.28610345,-0.45571034,0.89012813,0,0)" /><path
     id="path8522"
     clip-path="url(#SVGID_2_)"
     d="m 53.1,152.4 c -2.9,-0.1 -5.3,1.6 -5.3,3.8"
     class="st2"
     style="fill:none;stroke:#593d21;stroke-width:0.25;stroke-miterlimit:10"
     transform="matrix(1.2982472,0,0,1.5537769,-13.906374,-48.747666)"
     inkscape:connector-curvature="0" /><path
     id="path8524"
     clip-path="url(#SVGID_2_)"
     d="M 69.8,113.7 C 64.9,109.4 59.4,107 53.7,107 c -5.8,0 -11.3,2.5 -16.3,6.9 4.8,2.3 10.3,3.6 16,3.6 6,0 11.5,-1.4 16.4,-3.8"
     class="st3"
     style="fill:#ffffff;stroke:#2b2b2b;stroke-miterlimit:10"
     transform="matrix(1.2982472,0,0,1.5537769,-13.906374,-48.747666)"
     inkscape:connector-curvature="0" /><path
     id="path8526"
     clip-path="url(#SVGID_2_)"
     d="M 69.8,113.7 C 64.9,109.4 59.4,107 53.7,107 c -5.8,0 -11.3,2.5 -16.3,6.9 4.8,2.3 10.3,3.6 16,3.6 6,0 11.5,-1.4 16.4,-3.8 z"
     class="st4"
     style="fill:none;stroke:#000000;stroke-width:0.25;stroke-miterlimit:10"
     transform="matrix(1.2982472,0,0,1.5537769,-13.906374,-48.747666)"
     inkscape:connector-curvature="0" /><path
     id="path8528"
     clip-path="url(#SVGID_2_)"
     d="m 42.5,119.5 c 0,0 10.5,53.2 11,68 v 0 c 0.5,-14.8 11,-68 11,-68 0,0 1.9,-3.1 5.8,-5.4 -0.1,-0.1 -0.3,-0.3 -0.4,-0.4 -4.9,2.4 -10.5,3.8 -16.3,3.8 -5.7,0 -11.2,-1.3 -16,-3.6 -0.2,0.1 -0.3,0.3 -0.5,0.4 3.6,2.3 5.4,5.2 5.4,5.2"
     class="st3"
     style="fill:#ffffff;stroke:#2b2b2b;stroke-miterlimit:10"
     transform="matrix(1.2982472,0,0,1.5537769,-13.906374,-48.747666)"
     inkscape:connector-curvature="0" /><path
     id="path8530"
     clip-path="url(#SVGID_2_)"
     d="m 42.5,119.5 c 0,0 10.5,53.2 11,68 v 0 c 0.5,-14.8 11,-68 11,-68 0,0 1.9,-3.1 5.8,-5.4 -0.1,-0.1 -0.3,-0.3 -0.4,-0.4 -4.9,2.4 -10.5,3.8 -16.3,3.8 -5.7,0 -11.2,-1.3 -16,-3.6 -0.2,0.1 -0.3,0.3 -0.5,0.4 3.6,2.3 5.4,5.2 5.4,5.2 z"
     class="st4"
     style="fill:none;stroke:#000000;stroke-width:0.25;stroke-miterlimit:10"
     transform="matrix(1.2982472,0,0,1.5537769,-13.906374,-48.747666)"
     inkscape:connector-curvature="0" /><path
     id="path8532"
     clip-path="url(#SVGID_2_)"
     d="m 64.5,119.5 c 0,0 -10.5,53.2 -11,68 H 94 c 0,-32.7 -9.7,-60.8 -23.7,-73.4 -3.9,2.3 -5.8,5.4 -5.8,5.4"
     class="st3"
     style="fill:#ffffff;stroke:#2b2b2b;stroke-miterlimit:10"
     transform="matrix(1.2982472,0,0,1.5537769,-13.906374,-48.747666)"
     inkscape:connector-curvature="0" /><path
     id="path8534"
     clip-path="url(#SVGID_2_)"
     d="m 64.5,119.5 c 0,0 -10.5,53.2 -11,68 H 94 c 0,-32.7 -9.7,-60.8 -23.7,-73.4 -3.9,2.3 -5.8,5.4 -5.8,5.4 z"
     class="st4"
     style="fill:none;stroke:#000000;stroke-width:0.25;stroke-miterlimit:10"
     transform="matrix(1.2982472,0,0,1.5537769,-13.906374,-48.747666)"
     inkscape:connector-curvature="0" /><path
     id="path8536"
     clip-path="url(#SVGID_2_)"
     d="m 13.5,187.5 h 40 c -0.5,-14.8 -11,-68 -11,-68 0,0 -1.8,-2.9 -5.5,-5.2 C 23.1,127 13.5,155 13.5,187.5"
     class="st3"
     style="fill:#ffffff;stroke:#2b2b2b;stroke-miterlimit:10"
     transform="matrix(1.2982472,0,0,1.5537769,-13.906374,-48.747666)"
     inkscape:connector-curvature="0" /><path
     id="path8538"
     clip-path="url(#SVGID_2_)"
     d="m 13.5,187.5 h 40 c -0.5,-14.8 -11,-68 -11,-68 0,0 -1.8,-2.9 -5.5,-5.2 C 23.1,127 13.5,155 13.5,187.5 Z"
     class="st4"
     style="fill:none;stroke:#000000;stroke-width:0.25;stroke-miterlimit:10"
     transform="matrix(1.2982472,0,0,1.5537769,-13.906374,-48.747666)"
     inkscape:connector-curvature="0" /><path
     id="path8540"
     clip-path="url(#SVGID_2_)"
     d="m 88.5,81 c 0,19.3 -15.7,35 -35,35 -19.3,0 -35,-15.7 -35,-35 0,-19.3 15.7,-35 35,-35 19.3,0 35,15.7 35,35"
     class="st3"
     style="fill:#ffffff;stroke:#2b2b2b;stroke-miterlimit:10"
     transform="matrix(1.2982472,0,0,1.5537769,-13.906374,-48.747666)"
     inkscape:connector-curvature="0" /><path
     id="path8542"
     clip-path="url(#SVGID_2_)"
     d="m 49.3,80.8 c 1.1,11.3 9.7,14 10,0 z"
     class="st5"
     style="fill:none;stroke:#e19c14;stroke-miterlimit:10"
     transform="matrix(1.2982472,0,0,1.5537769,-13.906374,-48.747666)"
     inkscape:connector-curvature="0" /><circle
     id="circle8544"
     clip-path="url(#SVGID_2_)"
     r="35"
     cy="82.5"
     cx="53.5"
     class="st6"
     style="fill:none;stroke:#000000;stroke-width:2;stroke-miterlimit:10"
     transform="matrix(1.2982472,0,0,1.5537769,-13.906374,-48.747666)" /><path
     id="path8546"
     clip-path="url(#SVGID_2_)"
     d="M 46.7,70.4 C 42.9,66.8 36.1,67.9 31.5,72.8"
     class="st4"
     style="fill:none;stroke:#000000;stroke-width:0.25;stroke-miterlimit:10"
     transform="matrix(1.2982472,0,0,1.5537769,-13.906374,-48.747666)"
     inkscape:connector-curvature="0" /><path
     id="path8548"
     clip-path="url(#SVGID_2_)"
     d="M 76.1,72.6 C 73.5,68.1 66.7,67.1 60.8,70.4"
     class="st4"
     style="fill:none;stroke:#000000;stroke-width:0.25;stroke-miterlimit:10"
     transform="matrix(1.2982472,0,0,1.5537769,-13.906374,-48.747666)"
     inkscape:connector-curvature="0" /><ellipse
     id="ellipse8550"
     clip-path="url(#SVGID_2_)"
     ry="4"
     rx="6"
     cy="74.5"
     cx="40.099998"
     class="st4"
     style="fill:none;stroke:#000000;stroke-width:0.25;stroke-miterlimit:10"
     transform="matrix(1.2982472,0,0,1.5537769,-13.906374,-48.747666)" /><path
     id="path8552"
     clip-path="url(#SVGID_2_)"
     d="m 43.6,74.5 c 0,1.9 -1.6,3.5 -3.5,3.5 -1.9,0 -3.5,-1.6 -3.5,-3.5 0,-1.9 1.6,-3.5 3.5,-3.5 1.9,0 3.5,1.6 3.5,3.5"
     class="st7"
     style="fill:#e19c14"
     transform="matrix(1.2982472,0,0,1.5537769,-13.906374,-48.747666)"
     inkscape:connector-curvature="0" /><ellipse
     id="ellipse8554"
     clip-path="url(#SVGID_2_)"
     ry="4"
     rx="6"
     cy="74.5"
     cx="68.5"
     class="st4"
     style="fill:none;stroke:#000000;stroke-width:0.25;stroke-miterlimit:10"
     transform="matrix(1.2982472,0,0,1.5537769,-13.906374,-48.747666)" /><path
     id="path8556"
     clip-path="url(#SVGID_2_)"
     d="M 72,74.5 C 72,76.4 70.4,78 68.5,78 66.6,78 65,76.4 65,74.5 65,72.6 66.6,71 68.5,71 c 1.9,0 3.5,1.6 3.5,3.5"
     class="st7"
     style="fill:#e19c14"
     transform="matrix(1.2982472,0,0,1.5537769,-13.906374,-48.747666)"
     inkscape:connector-curvature="0" /><path
     id="path8558"
     clip-path="url(#SVGID_2_-7)"
     d="m 50.4,71.4 c 2.6,-1.5 5.2,-1.6 7.6,0"
     class="st8"
     style="fill:none;stroke:#444444;stroke-miterlimit:10"
     transform="matrix(1.2982472,0,0,1.5537769,-13.906374,-48.747666)"
     inkscape:connector-curvature="0" /><rect
     id="rect8560"
     clip-path="url(#SVGID_2_-7)"
     height="14.5"
     width="21.4"
     class="st8"
     y="66"
     x="58.099998"
     style="fill:none;stroke:#444444;stroke-miterlimit:10"
     transform="matrix(1.2982472,0,0,1.5537769,-13.906374,-48.747666)" /><rect
     id="rect8562"
     clip-path="url(#SVGID_2_-7)"
     height="14.5"
     width="21.4"
     class="st8"
     y="66"
     x="29.1"
     style="fill:none;stroke:#444444;stroke-miterlimit:10"
     transform="matrix(1.2982472,0,0,1.5537769,-13.906374,-48.747666)" /><path
     id="path8564"
     clip-path="url(#SVGID_2_-7)"
     d="M 28.8,74 C 26.3,75.7 20.4,71.5 15.6,64.6"
     class="st8"
     style="fill:none;stroke:#444444;stroke-miterlimit:10"
     transform="matrix(1.2982472,0,0,1.5537769,-13.906374,-48.747666)"
     inkscape:connector-curvature="0" /><path
     id="path8566"
     clip-path="url(#SVGID_2_-7)"
     d="m 79.8,74 c 2.2,1.5 7.6,-2.3 11.9,-8.5"
     class="st8"
     style="fill:none;stroke:#444444;stroke-miterlimit:10"
     transform="matrix(1.2982472,0,0,1.5537769,-13.906374,-48.747666)"
     inkscape:connector-curvature="0" /><path
     id="path8568"
     clip-path="url(#SVGID_2_-7)"
     d="m 50.4,74.4 c 2.6,-1.5 5.2,-1.6 7.6,0"
     class="st8"
     style="fill:none;stroke:#444444;stroke-miterlimit:10"
     transform="matrix(1.2982472,0,0,1.5537769,-13.906374,-48.747666)"
     inkscape:connector-curvature="0" /><line
     id="line8570"
     clip-path="url(#SVGID_2_-7)"
     y2="94"
     x2="57.099998"
     y1="104"
     x1="56.900002"
     class="st9"
     transform="matrix(1.2982472,0,0,1.5537769,-13.906374,-48.747666)"
     style="fill:#ff7900" /><line
     id="line8572"
     clip-path="url(#SVGID_2_-7)"
     y2="94"
     x2="57.099998"
     y1="104"
     x1="56.900002"
     class="st10"
     style="fill:none;stroke:#000000;stroke-width:0.25;stroke-miterlimit:10"
     transform="matrix(1.2982472,0,0,1.5537769,-13.906374,-48.747666)" /><line
     id="line8574"
     clip-path="url(#SVGID_2_-7)"
     y2="93"
     x2="63"
     y1="103"
     x1="63"
     class="st9"
     transform="matrix(1.2982472,0,0,1.5537769,-13.906374,-48.747666)"
     style="fill:#ff7900" /><line
     id="line8576"
     clip-path="url(#SVGID_2_-7)"
     y2="93"
     x2="63"
     y1="103"
     x1="63"
     class="st10"
     style="fill:none;stroke:#000000;stroke-width:0.25;stroke-miterlimit:10"
     transform="matrix(1.2982472,0,0,1.5537769,-13.906374,-48.747666)" /><line
     id="line8578"
     clip-path="url(#SVGID_2_-7)"
     y2="104"
     x2="60"
     y1="94"
     x1="60"
     class="st9"
     transform="matrix(1.2982472,0,0,1.5537769,-13.906374,-48.747666)"
     style="fill:#ff7900" /><line
     id="line8580"
     clip-path="url(#SVGID_2_-7)"
     y2="104"
     x2="60"
     y1="94"
     x1="60"
     class="st10"
     style="fill:none;stroke:#000000;stroke-width:0.25;stroke-miterlimit:10"
     transform="matrix(1.2982472,0,0,1.5537769,-13.906374,-48.747666)" /><line
     id="line8582"
     clip-path="url(#SVGID_2_-7)"
     y2="98"
     x2="66"
     y1="98"
     x1="42"
     class="st9"
     transform="matrix(1.2982472,0,0,1.5537769,-13.906374,-48.747666)"
     style="fill:#ff7900" /><line
     id="line8584"
     clip-path="url(#SVGID_2_-7)"
     y2="98"
     x2="66"
     y1="98"
     x1="42"
     class="st10"
     style="fill:none;stroke:#000000;stroke-width:0.25;stroke-miterlimit:10"
     transform="matrix(1.2982472,0,0,1.5537769,-13.906374,-48.747666)" /><line
     id="line8586"
     clip-path="url(#SVGID_2_-7)"
     y2="94"
     x2="53.900002"
     y1="104"
     x1="54"
     class="st9"
     transform="matrix(1.2982472,0,0,1.5537769,-13.906374,-48.747666)"
     style="fill:#ff7900" /><line
     id="line8588"
     clip-path="url(#SVGID_2_-7)"
     y2="94"
     x2="53.900002"
     y1="104"
     x1="54"
     class="st10"
     style="fill:none;stroke:#000000;stroke-width:0.25;stroke-miterlimit:10"
     transform="matrix(1.2982472,0,0,1.5537769,-13.906374,-48.747666)" /><line
     id="line8590"
     clip-path="url(#SVGID_2_-7)"
     y2="94"
     x2="48"
     y1="103"
     x1="48"
     class="st9"
     transform="matrix(1.2982472,0,0,1.5537769,-13.906374,-48.747666)"
     style="fill:#ff7900" /><line
     id="line8592"
     clip-path="url(#SVGID_2_-7)"
     y2="94"
     x2="48"
     y1="103"
     x1="48"
     class="st10"
     style="fill:none;stroke:#000000;stroke-width:0.25;stroke-miterlimit:10"
     transform="matrix(1.2982472,0,0,1.5537769,-13.906374,-48.747666)" /><line
     id="line8594"
     clip-path="url(#SVGID_2_-7)"
     y2="104"
     x2="51"
     y1="94"
     x1="51"
     class="st9"
     transform="matrix(1.2982472,0,0,1.5537769,-13.906374,-48.747666)"
     style="fill:#ff7900" /><line
     id="line8596"
     clip-path="url(#SVGID_2_-7)"
     y2="104"
     x2="51"
     y1="94"
     x1="51"
     class="st10"
     style="fill:none;stroke:#000000;stroke-width:0.25;stroke-miterlimit:10"
     transform="matrix(1.2982472,0,0,1.5537769,-13.906374,-48.747666)" /><line
     id="line8598"
     clip-path="url(#SVGID_2_-7)"
     y2="94"
     x2="44.900002"
     y1="102.1"
     x1="44.900002"
     class="st9"
     transform="matrix(1.2982472,0,0,1.5537769,-13.906374,-48.747666)"
     style="fill:#ff7900" /><line
     id="line8600"
     clip-path="url(#SVGID_2_-7)"
     y2="94"
     x2="44.900002"
     y1="102.1"
     x1="44.900002"
     class="st10"
     style="fill:none;stroke:#000000;stroke-width:0.25;stroke-miterlimit:10"
     transform="matrix(1.2982472,0,0,1.5537769,-13.906374,-48.747666)" /><path
     id="path8602"
     clip-path="url(#SVGID_2_-7)"
     d="m 64.8,101.7 c -1.5,3.2 -20.3,2.8 -21.3,-0.2 -0.9,-2.6 -3.1,-10 -0.4,-8.7 5.4,2.7 20.2,1.3 21.7,0 2.7,-2.3 0.5,8 0,8.9 z"
     class="st11"
     style="fill:none;stroke:#e19c14;stroke-width:3;stroke-miterlimit:10"
     transform="matrix(1.2982472,0,0,1.5537769,-13.906374,-48.747666)"
     inkscape:connector-curvature="0" /><path
     id="path8604"
     clip-path="url(#SVGID_2_)"
     d="m 55.1,122.6 c -3.6,-0.1 -6.6,2.3 -6.7,5.4"
     class="st2"
     style="fill:none;stroke:#593d21;stroke-width:0.25;stroke-miterlimit:10"
     transform="matrix(1.2982472,0,0,1.5537769,-13.906374,-48.747666)"
     inkscape:connector-curvature="0" /><path
     id="path8606"
     clip-path="url(#SVGID_2_)"
     d="m 53.7,130.4 c 3.5,0.1 6.3,2.2 6.2,4.8"
     class="st2"
     style="fill:none;stroke:#593d21;stroke-width:0.25;stroke-miterlimit:10"
     transform="matrix(1.2982472,0,0,1.5537769,-13.906374,-48.747666)"
     inkscape:connector-curvature="0" /><path
     id="path8608"
     clip-path="url(#SVGID_2_)"
     d="m 54.7,141.4 c -2.5,-0.1 -4.6,2.4 -4.7,5.4"
     class="st2"
     style="fill:none;stroke:#593d21;stroke-width:0.25;stroke-miterlimit:10"
     transform="matrix(1.2982472,0,0,1.5537769,-13.906374,-48.747666)"
     inkscape:connector-curvature="0" /><path
     id="path8610"
     clip-path="url(#SVGID_2_)"
     d="m 51,156.5 c 2.5,0.1 4.5,1.9 4.5,4"
     class="st2"
     style="fill:none;stroke:#593d21;stroke-width:0.25;stroke-miterlimit:10"
     transform="matrix(1.2982472,0,0,1.5537769,-13.906374,-48.747666)"
     inkscape:connector-curvature="0" /><path
     id="path8612"
     clip-path="url(#SVGID_2_)"
     d="m 53,135 c 3.3,0.1 6,2.4 5.9,5.3"
     class="st2"
     style="fill:none;stroke:#593d21;stroke-width:0.25;stroke-miterlimit:10"
     transform="matrix(1.2982472,0,0,1.5537769,-13.906374,-48.747666)"
     inkscape:connector-curvature="0" /><path
     id="path8614"
     clip-path="url(#SVGID_2_-7)"
     d="m 115,60.8 c -0.7,5.1 -0.2,12.9 1.3,21.4 L 123,81 c -0.4,-9.1 -3.7,-16.8 -8,-20.2 z"
     class="st12"
     style="fill:#ffffff;stroke:#2b2b2b;stroke-width:0.75;stroke-miterlimit:10"
     transform="matrix(1.2035613,0.59436862,-0.67196262,1.1653902,26.711055,-53.914221)"
     inkscape:connector-curvature="0" /><path
     id="path8616"
     clip-path="url(#SVGID_2_-7)"
     d="m 123.9,80.7 5.3,-1 c -1.5,-8 -3.7,-15 -6,-19.5 -1.8,5.1 -1.7,12.7 0.7,20.5 z"
     class="st12"
     style="fill:#ffffff;stroke:#2b2b2b;stroke-width:0.75;stroke-miterlimit:10"
     transform="matrix(1.2035613,0.59436862,-0.67196262,1.1653902,26.83142,-53.854785)"
     inkscape:connector-curvature="0" /><path
     id="path8618"
     clip-path="url(#SVGID_2_-7)"
     d="m 123.3,60.2 c -1.9,-3.7 -3.8,-5.9 -5.4,-5.6 -1.5,0.3 -2.5,2.5 -2.9,6.1 4.3,3.5 7.6,11.1 8,20.1 l 0.9,-0.2 c -2.4,-7.7 -2.5,-15.3 -0.6,-20.4 z"
     class="st12"
     style="fill:#ffffff;stroke:#2b2b2b;stroke-width:0.75;stroke-miterlimit:10"
     transform="matrix(1.2035613,0.59436862,-0.67196262,1.1653902,26.711055,-53.914221)"
     inkscape:connector-curvature="0" /><line
     id="line8620"
     clip-path="url(#SVGID_2_-7)"
     y2="80.5"
     x2="123.5"
     y1="78.5"
     x1="123.2"
     class="st12"
     style="fill:#ffffff;stroke:#2b2b2b;stroke-width:0.75;stroke-miterlimit:10"
     transform="matrix(1.2035613,0.59436862,-0.67196262,1.1653902,26.711055,-53.914221)" /><path
     style="fill:none;stroke:#e19c14;stroke-width:1.77534616;stroke-miterlimit:10"
     class="st15"
     d="m 43.605979,14.646432 c -5.842112,-5.748974 -14.280719,-3.418308 -18.95441,5.282841 -3.764917,6.836617 -3.115793,16.314657 1.557897,20.820611 3.764917,3.729063 9.217556,2.175287 12.203524,-3.41831 2.46667,-4.350576 1.947371,-10.410305 -1.038598,-13.362482 -2.336845,-2.330665 -5.842112,-1.398398 -7.789483,2.175289 -1.557897,2.796797 -1.298247,6.68124 0.649124,8.545772 1.557896,1.553777 3.764917,0.932266 4.933339,-1.3984 1.038598,-1.864531 0.778948,-4.195196 -0.389474,-5.438218"
     id="path8646"
     inkscape:connector-curvature="0" /><path
     style="fill:none;stroke:#e19c14;stroke-width:1.77534616;stroke-miterlimit:10"
     class="st15"
     d="M 43.216505,35.467042 C 49.967391,31.582599 51.784937,21.327671 47.111247,12.626522 43.476154,5.634526 36.20597,2.526972 30.753331,5.634526 c -4.284215,2.486044 -5.452638,9.011906 -2.466669,14.605502 2.336845,4.505953 7.14036,6.525862 10.515802,4.505953 2.72632,-1.553777 3.505268,-5.748974 1.557897,-9.32266 -1.557897,-2.796799 -4.543865,-4.195197 -6.750886,-2.796799 -1.817546,1.087644 -2.20702,3.729065 -1.038597,6.059729 0.908773,1.864532 2.856144,2.64142 4.284216,1.864532"
     id="path8648"
     inkscape:connector-curvature="0" /><path
     style="fill:none;stroke:#e19c14;stroke-width:1.77534616;stroke-miterlimit:10"
     class="st15"
     d="M 37.244568,43.702059 C 43.995453,39.817617 45.813,29.562689 41.139309,20.861539 37.504217,13.869544 30.104208,10.76199 24.651569,13.869544 c -4.284215,2.486043 -5.452638,9.011905 -2.466669,14.605501 2.336845,4.505953 7.14036,6.525865 10.515802,4.505953 2.72632,-1.553776 3.505268,-5.748974 1.557897,-9.322661 -1.557897,-2.796798 -4.543865,-4.195196 -6.750886,-2.796798 -1.817546,1.087643 -2.20702,3.729065 -1.038597,6.05973 0.908773,1.864533 2.856144,2.64142 4.284215,1.864533"
     id="path8650"
     inkscape:connector-curvature="0" /><path
     style="fill:none;stroke:#e19c14;stroke-width:1.77534616;stroke-miterlimit:10"
     class="st15"
     d="m 42.956856,39.817617 c 2.20702,-8.545773 -2.72632,-17.091546 -11.294751,-19.111456 -6.750886,-1.553776 -13.761421,2.796799 -15.578967,9.633417 -1.428072,5.438219 1.817546,11.031816 7.140359,12.274837 4.284216,0.932265 8.828082,-1.709155 9.996504,-6.215108 0.908773,-3.573686 -1.168422,-6.991995 -4.67369,-7.768884 -2.726319,-0.621511 -5.582463,1.087644 -6.361411,3.884443 -0.649124,2.330665 0.778948,4.505953 2.985968,4.972085 1.817546,0.466134 3.635093,-0.776887 4.024567,-2.486041"
     id="path8652"
     inkscape:connector-curvature="0" /><path
     style="fill:none;stroke:#e19c14;stroke-width:1.77534616;stroke-miterlimit:10"
     class="st15"
     d="m 42.437557,36.399307 c 2.726319,-6.525863 0,-14.294746 -6.101762,-17.4023 -4.93334,-2.486044 -10.645628,-0.310756 -12.852648,4.972085 -1.817546,4.195198 0,9.167285 3.894742,11.187194 3.115793,1.553778 6.88071,0.155379 8.308782,-3.107554 1.168423,-2.64142 0,-5.904351 -2.46667,-7.147373 -1.947371,-1.087644 -4.41404,-0.155378 -5.322813,2.01991 -0.778949,1.709154 0,3.729064 1.557896,4.505953 1.298247,0.62151 2.856144,0 3.375443,-1.243023"
     id="path8654"
     inkscape:connector-curvature="0" /><path
     style="fill:none;stroke:#e19c14;stroke-width:1.77534616;stroke-miterlimit:10"
     class="st15"
     d="m 70.349872,35.622419 c 2.856144,-7.924262 0.25965,-17.091545 -5.842112,-20.665232 -4.93334,-2.796799 -10.645628,-0.155378 -12.982473,6.215108 -1.817546,4.972086 -0.129824,10.876437 3.764917,13.207103 3.115794,1.864532 6.880711,0 8.308783,-3.884442 1.168422,-3.262932 0.129825,-6.991996 -2.46667,-8.545774 -1.947371,-1.243021 -4.414041,0 -5.322814,2.486043 -0.778948,2.019911 0,4.505953 1.557897,5.438219 1.298247,0.776889 2.856144,0 3.375443,-1.553776"
     id="path8656"
     inkscape:connector-curvature="0" /><path
     style="fill:none;stroke:#e19c14;stroke-width:1.77534616;stroke-miterlimit:10"
     class="st15"
     d="m 29.584909,18.997007 c 1.947371,-6.991995 8.438607,-10.099549 14.670194,-7.147374 4.933339,2.486044 7.659659,8.856528 6.101762,14.450125 -1.168423,4.505953 -5.452639,6.525863 -9.34738,4.505953 -3.115794,-1.553777 -4.93334,-5.748975 -3.894742,-9.322661 0.778948,-2.796799 3.505268,-4.195197 5.971937,-2.952176 2.077196,0.932267 3.115794,3.729063 2.46667,5.904351 -0.519299,1.864533 -2.20702,2.64142 -3.894742,1.864533 -1.298247,-0.62151 -1.947371,-2.330666 -1.557896,-3.729064"
     id="path8658"
     inkscape:connector-curvature="0" /><path
     style="fill:none;stroke:#e19c14;stroke-width:1.77534616;stroke-miterlimit:10"
     class="st15"
     d="m 44.644577,33.136377 c -1.817546,-6.991996 1.947371,-14.13937 8.308782,-16.003902 5.192989,-1.553777 10.515803,1.864532 12.0737,7.458129 1.168422,4.505953 -1.168423,9.011906 -5.322814,10.254927 -3.375443,0.932266 -6.750886,-1.243021 -7.659659,-4.816708 -0.778948,-2.796799 0.778949,-5.748974 3.375443,-6.525863 2.077196,-0.621511 4.284216,0.776889 4.93334,3.107553 0.519299,1.864532 -0.519299,3.729065 -2.207021,4.195198 -1.298247,0.466133 -2.726319,-0.466133 -3.115793,-2.019909"
     id="path8660"
     inkscape:connector-curvature="0" /><path
     style="fill:none;stroke:#e19c14;stroke-width:1.77534616;stroke-miterlimit:10"
     class="st15"
     d="M 70.479697,22.415316 C 69.441099,13.558788 61.781441,8.431325 53.472658,11.072745 c -6.621061,2.175288 -11.424575,9.633416 -10.515802,16.78079 0.649123,5.748975 5.582463,9.011905 10.905276,7.302751 4.284216,-1.398399 7.270185,-6.215108 6.750886,-10.721061 -0.389474,-3.729064 -3.505267,-5.748974 -7.010535,-4.66133 -2.726319,0.932266 -4.67369,3.884442 -4.284216,6.836618 0.25965,2.330665 2.336845,3.729065 4.414041,2.952176 1.687721,-0.621511 2.985968,-2.486044 2.726319,-4.350574"
     id="path8662"
     inkscape:connector-curvature="0" /><path
     style="fill:none;stroke:#e19c14;stroke-width:1.77534616;stroke-miterlimit:10"
     class="st15"
     d="M 58.535823,37.486951 C 65.806007,39.972994 72.816542,33.757887 74.244614,23.658337 75.413037,15.578698 71.64812,7.34368 65.935832,5.323771 c -4.67369,-1.553778 -9.087731,2.330665 -10.126329,8.856528 -0.778948,5.282842 1.687722,10.410305 5.322814,11.808704 2.985969,1.087642 5.842113,-1.553778 6.491236,-5.593597 0.519299,-3.262931 -1.038598,-6.68124 -3.375443,-7.458128 -1.94737,-0.621511 -3.764917,0.932266 -4.154391,3.573685 -0.259649,2.175288 0.649124,4.350576 2.207021,4.816708"
     id="path8664"
     inkscape:connector-curvature="0" /><path
     style="fill:none;stroke:#e19c14;stroke-width:1.77534616;stroke-miterlimit:10"
     class="st15"
     d="M 49.448092,38.885351 C 56.718276,41.371394 63.728812,35.156286 65.156883,25.056736 66.325306,16.977097 62.560389,8.74208 56.848101,6.72217 52.174411,5.168392 47.76037,9.052835 46.721773,15.578698 c -0.778949,5.282841 1.687721,10.410305 5.322813,11.808705 2.985969,1.087642 5.842113,-1.553778 6.491237,-5.593598 0.519298,-3.262931 -1.038598,-6.68124 -3.375443,-7.458128 -1.947371,-0.621511 -3.764917,0.932265 -4.154391,3.573686 -0.25965,2.175287 0.649123,4.350574 2.20702,4.816708"
     id="path8666"
     inkscape:connector-curvature="0" /><path
     style="fill:none;stroke:#e19c14;stroke-width:1.77534616;stroke-miterlimit:10"
     class="st15"
     d="m 44.774402,39.662239 c 7.270184,2.486043 14.280719,-3.729065 15.708791,-13.828614 1.168423,-8.07964 -2.596494,-16.314657 -8.308782,-18.334566 -4.67369,-1.553778 -9.087731,2.330665 -10.126328,8.856528 -0.778949,5.28284 1.687721,10.410303 5.322813,11.808703 2.985969,1.087644 5.842113,-1.553777 6.491236,-5.593596 0.519299,-3.262932 -1.038597,-6.681241 -3.375442,-7.458129 -1.947371,-0.621511 -3.764917,0.932267 -4.154392,3.573686 -0.259649,2.175288 0.649124,4.350576 2.207021,4.816709"
     id="path8668"
     inkscape:connector-curvature="0" /><path
     style="fill:none;stroke:#e19c14;stroke-width:1.77534616;stroke-miterlimit:10"
     class="st15"
     d="m 57.627049,14.491054 c 5.322814,-3.573686 11.943875,-0.776888 14.800019,6.525862 2.336845,5.748974 0.649124,12.740971 -3.505267,15.693148 -3.375443,2.330664 -7.659659,0.466132 -9.477205,-4.195198 -1.428072,-3.729064 -0.389475,-8.235017 2.336845,-9.944172 2.20702,-1.553778 4.933339,-0.310757 6.101762,2.641421 0.908773,2.330664 0.259649,5.282841 -1.428072,6.370484 -1.428072,0.932267 -3.115794,0.155378 -3.894742,-1.709155 -0.649124,-1.553776 -0.129825,-3.418308 0.908773,-4.039819"
     id="path8670"
     inkscape:connector-curvature="0" /><path
     style="fill:none;stroke:#e19c14;stroke-width:1.77534616;stroke-miterlimit:10"
     class="st15"
     d="m 94.497274,28.008912 c -1.0386,-8.856527 -8.698259,-13.983991 -17.007042,-11.34257 -6.621061,2.175288 -11.294751,9.633416 -10.515802,16.78079 0.649123,5.748974 5.582463,9.011906 10.905276,7.302752 4.284216,-1.3984 7.270185,-6.215108 6.750886,-10.721061 -0.389474,-3.729065 -3.635092,-5.748974 -7.010535,-4.661332 -2.726319,0.932267 -4.67369,3.884443 -4.284216,6.83662 0.25965,2.330665 2.336845,3.729063 4.414041,2.952175 1.687721,-0.62151 2.985968,-2.486043 2.726319,-4.350575"
     id="path8672"
     inkscape:connector-curvature="0" /><path
     style="fill:none;stroke:#e19c14;stroke-width:1.77534616;stroke-miterlimit:10"
     class="st15"
     d="m 82.683221,43.080548 c 7.270185,2.486044 14.280723,-3.729064 15.708793,-13.828614 1.16842,-8.079639 -2.5965,-16.314656 -8.30878,-18.334566 -4.673693,-1.553777 -9.087734,2.330665 -10.126332,8.856527 -0.778948,5.282841 1.687722,10.410304 5.322814,11.808704 2.985968,1.087644 5.842108,-1.553776 6.491238,-5.593596 0.5193,-3.262932 -1.0386,-6.681241 -3.375445,-7.458129 -1.947371,-0.621511 -3.764917,0.932267 -4.154391,3.573687 -0.259649,2.175288 0.649124,4.350575 2.20702,4.816708"
     id="path8674"
     inkscape:connector-curvature="0" /><path
     style="fill:none;stroke:#e19c14;stroke-width:1.77534616;stroke-miterlimit:10"
     class="st15"
     d="M 73.595491,44.478947 C 80.865675,46.964991 87.87621,40.749884 89.304282,30.650333 90.472704,22.570694 86.707788,14.335677 80.9955,12.315767 c -4.67369,-1.553777 -9.087731,2.330665 -10.126329,8.856528 -0.778948,5.282841 1.687722,10.410304 5.322814,11.808703 2.985969,1.087645 5.842113,-1.553776 6.491236,-5.593595 0.519299,-3.262933 -1.038597,-6.681242 -3.375443,-7.613508 -1.94737,-0.62151 -3.764917,0.932266 -4.154391,3.573687 -0.259649,2.175288 0.649124,4.350575 2.207021,4.816708"
     id="path8676"
     inkscape:connector-curvature="0" /><path
     style="fill:none;stroke:#e19c14;stroke-width:1.77534616;stroke-miterlimit:10"
     class="st15"
     d="m 68.791976,45.255835 c 7.270184,2.486044 14.280719,-3.729064 15.708791,-13.828613 1.168423,-8.07964 -2.596494,-16.314657 -8.308782,-18.334568 -4.67369,-1.553775 -9.087731,2.330667 -10.126328,8.856528 -0.778949,5.282842 1.687721,10.410306 5.322813,11.808705 2.985969,1.087644 5.842113,-1.553776 6.491236,-5.593597 0.519299,-3.262931 -1.038597,-6.68124 -3.375442,-7.458129 -1.947371,-0.621511 -3.764917,0.932266 -4.154392,3.573688 -0.259649,2.175287 0.649124,4.350574 2.207021,4.816708"
     id="path8678"
     inkscape:connector-curvature="0" /><path
     style="fill:none;stroke:#e19c14;stroke-width:1.77534616;stroke-miterlimit:10"
     class="st15"
     d="m 81.644624,20.08465 c 5.322813,-3.573687 11.94387,-0.776888 14.80002,6.525863 2.33684,5.748975 0.64912,12.740971 -3.50527,15.693147 -3.375442,2.330665 -7.659658,0.466133 -9.477204,-4.195198 -1.428072,-3.729064 -0.389475,-8.235018 2.336845,-9.944172 2.20702,-1.553777 4.933339,-0.310755 6.101759,2.641421 0.90878,2.330666 0.25965,5.282841 -1.42807,6.370485 -1.428071,0.932266 -3.115793,0.155378 -3.894741,-1.709154 -0.649124,-1.553777 -0.129825,-3.41831 0.908773,-4.03982"
     id="path8680"
     inkscape:connector-curvature="0" /><g
     transform="matrix(1.3436018,-0.01275962,0.03629311,1.7698605,-28.80498,-69.887544)"
     class="st7"
     clip-path="url(#SVGID_2_)"
     id="g11175"><polygon
       class="st9"
       points="172.7,110.2 166.5,61.8 72.2,98.5 "
       id="polygon11147"
       style="fill:#ff7900" /><line
       class="st10"
       x1="171"
       y1="65.900002"
       x2="176.39999"
       y2="59.900002"
       id="line11149"
       style="fill:none;stroke:#ff7900;stroke-miterlimit:10" /><line
       class="st10"
       x1="172.39999"
       y1="69.400002"
       x2="184.3"
       y2="67"
       id="line11151"
       style="fill:none;stroke:#ff7900;stroke-miterlimit:10" /><line
       class="st10"
       x1="174.89999"
       y1="73.599998"
       x2="184.2"
       y2="76"
       id="line11153"
       style="fill:none;stroke:#ff7900;stroke-miterlimit:10" /><line
       class="st10"
       x1="175.60001"
       y1="80.699997"
       x2="189.2"
       y2="85.300003"
       id="line11155"
       style="fill:none;stroke:#ff7900;stroke-miterlimit:10" /><line
       class="st10"
       x1="176.39999"
       y1="87.800003"
       x2="189.5"
       y2="87.900002"
       id="line11157"
       style="fill:none;stroke:#ff7900;stroke-miterlimit:10" /><line
       class="st10"
       x1="175.2"
       y1="77.099998"
       x2="188.60001"
       y2="79.099998"
       id="line11159"
       style="fill:none;stroke:#ff7900;stroke-miterlimit:10" /><line
       class="st10"
       x1="174.60001"
       y1="70.900002"
       x2="189.7"
       y2="70.900002"
       id="line11161"
       style="fill:none;stroke:#ff7900;stroke-miterlimit:10" /><line
       class="st10"
       x1="172.2"
       y1="67.599998"
       x2="181.7"
       y2="61.700001"
       id="line11163"
       style="fill:none;stroke:#ff7900;stroke-miterlimit:10" /><line
       class="st10"
       x1="179.3"
       y1="93.699997"
       x2="190.8"
       y2="90.599998"
       id="line11165"
       style="fill:none;stroke:#ff7900;stroke-miterlimit:10" /><line
       class="st10"
       x1="177.89999"
       y1="102.3"
       x2="189.8"
       y2="100.5"
       id="line11167"
       style="fill:none;stroke:#ff7900;stroke-miterlimit:10" /><line
       class="st10"
       x1="180.10001"
       y1="106.6"
       x2="189.3"
       y2="109.5"
       id="line11169"
       style="fill:none;stroke:#ff7900;stroke-miterlimit:10" /><line
       class="st10"
       x1="180"
       y1="103.9"
       x2="193.3"
       y2="104.9"
       id="line11171"
       style="fill:none;stroke:#ff7900;stroke-miterlimit:10" /><line
       class="st10"
       x1="177.8"
       y1="100.5"
       x2="190.39999"
       y2="93.300003"
       id="line11173"
       style="fill:none;stroke:#ff7900;stroke-miterlimit:10" /></g></svg>