<?xml version="1.0" encoding="UTF-8"?>
<!-- Created with Inkscape (http://www.inkscape.org/) -->
<svg id="SVGRoot" width="210mm" height="148mm" version="1.1" viewBox="0 0 210 148" xmlns="http://www.w3.org/2000/svg" xmlns:cc="http://creativecommons.org/ns#" xmlns:dc="http://purl.org/dc/elements/1.1/" xmlns:rdf="http://www.w3.org/1999/02/22-rdf-syntax-ns#">
 <metadata>
  <rdf:RDF>
   <cc:Work rdf:about="">
    <dc:format>image/svg+xml</dc:format>
    <dc:type rdf:resource="http://purl.org/dc/dcmitype/StillImage"/>
    <dc:title/>
   </cc:Work>
  </rdf:RDF>
 </metadata>
 <g transform="matrix(3.6195 0 0 5.4494 -272.94 -179.93)" stroke-width=".068161">
  <g fill="#e19c14">
   <path class="cls-1" d="m131.47 45.935c0.0694-0.11028 0.13628-0.22146 0.20209-0.33174 0.0223-0.0529 0.044-0.1067 0.0674-0.1587v-2.7526h-46.648v3.3174h46.187a1.0757 1.8614 0 0 1 0.19121 -0.07442z"/>
   <path class="cls-1" d="m131.53 46.031c0.13369-0.21519 0.28292-0.38644 0.29225-0.70922 8e-3 -0.30036 0-0.60521 0-0.90557v-1.7242a0.078762 0.13628 0 0 0 -0.0777 -0.13449h-44.752c-0.60471 0-1.2136-0.03317-1.8183 0h-0.07721a0.078762 0.13628 0 0 0 -0.07773 0.13449v3.3174a0.078762 0.13628 0 0 0 0.07773 0.13449h44.363c0.58398 0 1.1757 0.05021 1.7618 0a2.1401 3.703 0 0 0 0.27619 -0.0789c0.0984-0.02958 0.0565-0.2896-0.0415-0.25912-0.45392 0.13808-0.93272 0.06904-1.3939 0.06904h-44.273c-0.19587 0-0.42076-0.0538-0.61507 0a0.51817 0.89661 0 0 1 -0.07824 0l0.07773 0.13449v-3.3174l-0.07773 0.13449h45.947c0.19742 0 0.42853 0.05738 0.62181 0a0.48242 0.83474 0 0 1 0.0772 0l-0.0777-0.13449v2.4316a0.68244 1.1808 0 0 1 0 0.2645c-0.0254 0.16498-0.16737 0.32457-0.24665 0.4483-0.0793 0.12373 0.0388 0.30754 0.11193 0.19456z"/>
   <path class="cls-1" d="m131.47 45.935q0.058-0.08966 0.114-0.1838v-3.0592h-46.648v3.3174h46.342a1.0757 1.8614 0 0 1 0.19121 -0.07442z"/>
   <path class="cls-1" d="m131.53 46.031c0.13369-0.21429 0.13679-0.24298 0.13679-0.52272v-2.8162a0.078762 0.13628 0 0 0 -0.0777 -0.13449h-44.752c-0.60471 0-1.2136-0.03317-1.8183 0h-0.07721a0.078762 0.13628 0 0 0 -0.07773 0.13449v3.3174a0.078762 0.13628 0 0 0 0.07773 0.13449h44.524c0.58243 0 1.1732 0.04752 1.7551 0a2.1043 3.6411 0 0 0 0.27566 -0.0789c0.0985-0.02958 0.0565-0.2896-0.0415-0.25912-0.45288 0.13808-0.9296 0.06904-1.3908 0.06904h-44.423c-0.19794 0-0.4249-0.0538-0.62181 0a0.51817 0.89661 0 0 1 -0.07773 0l0.07773 0.13449v-3.3174l-0.07773 0.13449h45.947c0.19743 0 0.42854 0.05738 0.62181 0a0.48242 0.83474 0 0 1 0.0772 0l-0.0777-0.13449v2.6136a1.0944 1.8936 0 0 1 0 0.33264c-0.0176 0.16049 3e-3 0.05111-0.0912 0.20174-0.072 0.11835 0.0383 0.30395 0.11141 0.19098z"/>
   <path class="cls-1" d="m131.47 45.935c0.0694-0.11028 0.13628-0.22146 0.20209-0.33174 0.0223-0.0529 0.044-0.1067 0.0674-0.1587v-2.7526h-46.648v3.3174h46.187a1.0757 1.8614 0 0 1 0.19121 -0.07442z"/>
   <path class="cls-1" d="m131.53 46.031c0.13369-0.21519 0.28292-0.38644 0.29225-0.70922 8e-3 -0.30036 0-0.60521 0-0.90557v-1.7242a0.078762 0.13628 0 0 0 -0.0777 -0.13449h-44.752c-0.60471 0-1.2136-0.03317-1.8183 0h-0.07721a0.078762 0.13628 0 0 0 -0.07773 0.13449v3.3174a0.078762 0.13628 0 0 0 0.07773 0.13449h44.363c0.58398 0 1.1757 0.05021 1.7618 0a2.1401 3.703 0 0 0 0.27619 -0.0789c0.0984-0.02958 0.0565-0.2896-0.0415-0.25912-0.45392 0.13808-0.93272 0.06904-1.3939 0.06904h-44.273c-0.19587 0-0.42076-0.0538-0.61507 0a0.51817 0.89661 0 0 1 -0.07824 0l0.07773 0.13449v-3.3174l-0.07773 0.13449h45.947c0.19742 0 0.42853 0.05738 0.62181 0a0.48242 0.83474 0 0 1 0.0772 0l-0.0777-0.13449v2.4316a0.68244 1.1808 0 0 1 0 0.2645c-0.0254 0.16498-0.16737 0.32457-0.24665 0.4483-0.0793 0.12373 0.0388 0.30754 0.11193 0.19456z"/>
   <path class="cls-1" d="m131.47 45.935c0.0694-0.11028 0.13628-0.22146 0.20209-0.33174 0.0223-0.0529 0.044-0.1067 0.0674-0.1587v-2.7526h-46.648v3.3174h46.187a1.0757 1.8614 0 0 1 0.19121 -0.07442z"/>
   <path class="cls-1" d="m131.53 46.031c0.13369-0.21519 0.28292-0.38644 0.29225-0.70922 8e-3 -0.30036 0-0.60521 0-0.90557v-1.7242a0.078762 0.13628 0 0 0 -0.0777 -0.13449h-44.752c-0.60471 0-1.2136-0.03317-1.8183 0h-0.07721a0.078762 0.13628 0 0 0 -0.07773 0.13449v3.3174a0.078762 0.13628 0 0 0 0.07773 0.13449h44.363c0.58398 0 1.1757 0.05021 1.7618 0a2.1401 3.703 0 0 0 0.27619 -0.0789c0.0984-0.02958 0.0565-0.2896-0.0415-0.25912-0.45392 0.13808-0.93272 0.06904-1.3939 0.06904h-44.273c-0.19587 0-0.42076-0.0538-0.61507 0a0.51817 0.89661 0 0 1 -0.07824 0l0.07773 0.13449v-3.3174l-0.07773 0.13449h45.947c0.19742 0 0.42853 0.05738 0.62181 0a0.48242 0.83474 0 0 1 0.0772 0l-0.0777-0.13449v2.4316a0.68244 1.1808 0 0 1 0 0.2645c-0.0254 0.16498-0.16737 0.32457-0.24665 0.4483-0.0793 0.12373 0.0388 0.30754 0.11193 0.19456z"/>
   <path class="cls-1" d="m131.47 45.935c0.0694-0.11028 0.13628-0.22146 0.20209-0.33174 0.0223-0.0529 0.044-0.1067 0.0674-0.1587v-2.7526h-46.648v3.3174h46.187a1.0757 1.8614 0 0 1 0.19121 -0.07442z"/>
   <path class="cls-1" d="m131.53 46.031c0.13369-0.21519 0.28292-0.38644 0.29225-0.70922 8e-3 -0.30036 0-0.60521 0-0.90557v-1.7242a0.078762 0.13628 0 0 0 -0.0777 -0.13449h-44.752c-0.60471 0-1.2136-0.03317-1.8183 0h-0.07721a0.078762 0.13628 0 0 0 -0.07773 0.13449v3.3174a0.078762 0.13628 0 0 0 0.07773 0.13449h44.363c0.58398 0 1.1757 0.05021 1.7618 0a2.1401 3.703 0 0 0 0.27619 -0.0789c0.0984-0.02958 0.0565-0.2896-0.0415-0.25912-0.45392 0.13808-0.93272 0.06904-1.3939 0.06904h-44.273c-0.19587 0-0.42076-0.0538-0.61507 0a0.51817 0.89661 0 0 1 -0.07824 0l0.07773 0.13449v-3.3174l-0.07773 0.13449h45.947c0.19742 0 0.42853 0.05738 0.62181 0a0.48242 0.83474 0 0 1 0.0772 0l-0.0777-0.13449v2.4316a0.68244 1.1808 0 0 1 0 0.2645c-0.0254 0.16498-0.16737 0.32457-0.24665 0.4483-0.0793 0.12373 0.0388 0.30754 0.11193 0.19456z"/>
   <path class="cls-1" d="m131.47 45.935c0.0694-0.11028 0.13628-0.22146 0.20209-0.33174 0.0223-0.0529 0.044-0.1067 0.0674-0.1587v-2.7526h-46.648v3.3174h46.187a1.0757 1.8614 0 0 1 0.19121 -0.07442z"/>
   <path class="cls-1" d="m131.53 46.031c0.13369-0.21519 0.28292-0.38644 0.29225-0.70922 8e-3 -0.30036 0-0.60521 0-0.90557v-1.7242a0.078762 0.13628 0 0 0 -0.0777 -0.13449h-44.752c-0.60471 0-1.2136-0.03317-1.8183 0h-0.07721a0.078762 0.13628 0 0 0 -0.07773 0.13449v3.3174a0.078762 0.13628 0 0 0 0.07773 0.13449h44.363c0.58398 0 1.1757 0.05021 1.7618 0a2.1401 3.703 0 0 0 0.27619 -0.0789c0.0984-0.02958 0.0565-0.2896-0.0415-0.25912-0.45392 0.13808-0.93272 0.06904-1.3939 0.06904h-44.273c-0.19587 0-0.42076-0.0538-0.61507 0a0.51817 0.89661 0 0 1 -0.07824 0l0.07773 0.13449v-3.3174l-0.07773 0.13449h45.947c0.19742 0 0.42853 0.05738 0.62181 0a0.48242 0.83474 0 0 1 0.0772 0l-0.0777-0.13449v2.4316a0.68244 1.1808 0 0 1 0 0.2645c-0.0254 0.16498-0.16737 0.32457-0.24665 0.4483-0.0793 0.12373 0.0388 0.30754 0.11193 0.19456z"/>
   <path class="cls-1" d="m131.45 39.834a1.0939 1.8927 0 0 1 -0.10363 -0.2376 1.1032 1.9089 0 0 1 -0.10052 -0.22146h-46.305v3.3174h46.648v-2.3904a2.1613 3.7397 0 0 1 -0.13888 -0.46803z"/>
   <path class="cls-1" d="m131.5 39.739c-0.10363-0.21788-0.15234-0.47072-0.3109-0.49851-0.0684-0.01166-0.14095 0-0.20727 0h-44.148c-0.60523 0-1.2141-0.03317-1.8193 0h-0.07773a0.078762 0.13628 0 0 0 -0.07773 0.13449v3.3174a0.078762 0.13628 0 0 0 0.07773 0.13449h44.752c0.60471 0 1.2136 0.03317 1.8183 0h0.0772a0.078762 0.13628 0 0 0 0.0777 -0.13449v-2.2442c0-0.26091-0.0871-0.44113-0.14923-0.68142-0.041-0.1578-0.17462-0.02062-0.13421 0.13539 0.0668 0.25912 0.12799 0.37658 0.12799 0.64914v2.1411l0.0777-0.13449h-45.948c-0.19742 0-0.42853-0.05738-0.62181 0a0.48242 0.83474 0 0 1 -0.07721 0l0.07773 0.13449v-3.3174l-0.07825 0.13449h45.659c0.17566 0 0.41454-0.07263 0.58398 0 0.014 0.0063 0.0357-0.0099 0.0487 0h9e-3c0.013 0.01255-0.10364-0.10042-8e-3 0.02331 0.0274 0.03586 0.11918 0.31023 0.16063 0.3963 0.0648 0.1327 0.17411-0.06097 0.11037-0.19008z"/>
   <ellipse class="cls-2" cx="131.13" cy="42.737" rx="2.0468" ry="3.4519" stroke="#e19c14" stroke-miterlimit="10"/>
  </g>
  <path class="cls-3" d="m131.24 39.375a0.23059 0.39899 0 0 0 -0.0979 -0.05559c-0.0684-0.01166-0.14095 0-0.20727 0h-44.148c-0.60523 0-1.2141-0.03317-1.8193 0h-0.07773a0.078762 0.13628 0 0 0 -0.07773 0.13449v6.6349a0.078762 0.13628 0 0 0 0.07773 0.13449h44.519c0.47257 0 0.95033 0.03228 1.4245 0.01794a2.1167 3.6626 0 0 0 0.25183 0.0269c1.1307 0 2.0468-1.5458 2.0468-3.4519 0-1.8192-0.83426-3.3085-1.8913-3.4412z" fill="#fbae17" stroke="#808080"/>
  <path class="cls-4" d="m84.791 35.488a6.4839 11.219 0 0 1 -1.4219 0.65811 8.5364 14.771 0 0 1 -2.3359 0.44292c-1.3654 0-2.7556-0.37388-4.019-1.2992l-0.48346 2.576a8.3841 14.507 0 0 0 3.0458 16.22l1.3079 1.6435 1.3079-1.6435a8.3841 14.507 0 0 0 3.0458 -16.22z" fill="#fbae17"/>
  <path class="cls-5" d="m83.662 38.396a4.605 7.9681 0 0 1 -1.0099 0.46713 6.0626 10.49 0 0 1 -1.6582 0.31471c-0.9695 0-1.9571-0.26898-2.8541-0.92261l-0.34355 1.8291a5.9543 10.303 0 0 0 2.1629 11.52l0.92857 1.1656 0.92857-1.1656a5.9543 10.303 0 0 0 2.1644 -11.52z" fill="#e6e6e6"/>
  <path class="cls-3" d="m85.237 37.866-0.44615-2.3769a6.4839 11.219 0 0 1 -1.4219 0.65811 8.5364 14.771 0 0 1 -2.3359 0.44292c-1.3654 0-2.7557-0.37388-4.019-1.2992l-0.48397 2.5751a8.3841 14.507 0 0 0 3.0458 16.22l1.3079 1.6435 1.3079-1.6435a8.3841 14.507 0 0 0 3.0453 -16.22z" fill="none" stroke="#808080"/>
  <text class="cls-6" transform="scale(.76022 1.3154)" x="124.30621" y="44.213261" fill="#fbae17" font-family="AgencyFB-Bold, 'Agency FB'" font-size="11.928px" font-weight="700" letter-spacing=".02em" stroke="#666666" stroke-miterlimit="10">LOGIN HERE</text>
 </g>
</svg>
