<?xml version="1.0" encoding="UTF-8" standalone="no"?>
<svg
   xmlns:dc="http://purl.org/dc/elements/1.1/"
   xmlns:cc="http://creativecommons.org/ns#"
   xmlns:rdf="http://www.w3.org/1999/02/22-rdf-syntax-ns#"
   xmlns:svg="http://www.w3.org/2000/svg"
   xmlns="http://www.w3.org/2000/svg"
   xmlns:xlink="http://www.w3.org/1999/xlink"
   xmlns:sodipodi="http://sodipodi.sourceforge.net/DTD/sodipodi-0.dtd"
   xmlns:inkscape="http://www.inkscape.org/namespaces/inkscape"
   xml:space="preserve"
   viewBox="0 0 243 257"
   y="0px"
   x="0px"
   id="Layer_1"
   version="1.1"
   sodipodi:docname="logout.svg"
   width="243"
   height="257"
   inkscape:version="0.92.1 r15371"><sodipodi:namedview
     pagecolor="#ffffff"
     bordercolor="#666666"
     borderopacity="1"
     objecttolerance="10"
     gridtolerance="10"
     guidetolerance="10"
     inkscape:pageopacity="0"
     inkscape:pageshadow="2"
     inkscape:window-width="958"
     inkscape:window-height="1008"
     id="namedview5333"
     showgrid="false"
     inkscape:zoom="1.668772"
     inkscape:cx="160.33225"
     inkscape:cy="135.09212"
     inkscape:window-x="2873"
     inkscape:window-y="0"
     inkscape:window-maximized="0"
     inkscape:current-layer="Layer_1" /><metadata
     id="metadata8687"><rdf:RDF><cc:Work
         rdf:about=""><dc:format>image/svg+xml</dc:format><dc:type
           rdf:resource="http://purl.org/dc/dcmitype/StillImage" /><dc:title></dc:title></cc:Work></rdf:RDF></metadata><defs
     id="defs8685"><defs
       id="defs8513"><rect
         y="0"
         x="0"
         id="SVGID_1_"
         width="200"
         height="200" /></defs><clipPath
       id="SVGID_2_"><use
         height="100%"
         width="100%"
         y="0"
         x="0"
         xlink:href="#SVGID_1_"
         style="overflow:visible"
         id="use8515" /></clipPath></defs><style
     id="style8508"
     type="text/css">
	.st0{fill:#FFFFFF;}
	.st1{clip-path:url(#SVGID_2_);fill:none;stroke:#2B2B2B;stroke-miterlimit:10;}
	.st2{clip-path:url(#SVGID_2_);fill:none;stroke:#593D21;stroke-width:0.25;stroke-miterlimit:10;}
	.st3{clip-path:url(#SVGID_2_);fill:#FFFFFF;}
	.st4{clip-path:url(#SVGID_2_);fill:none;stroke:#000000;stroke-miterlimit:10;}
	.st5{clip-path:url(#SVGID_2_);fill:none;stroke:#E19C14;stroke-miterlimit:10;}
	.st6{clip-path:url(#SVGID_2_);fill:none;stroke:#000000;stroke-width:2;stroke-miterlimit:10;}
	.st7{clip-path:url(#SVGID_2_);fill:#E19C14;}
	.st8{clip-path:url(#SVGID_2_);fill:none;stroke:#444444;stroke-miterlimit:10;}
	.st9{clip-path:url(#SVGID_2_);}
	.st10{clip-path:url(#SVGID_2_);fill:none;stroke:#000000;stroke-width:0.25;stroke-miterlimit:10;}
	.st11{clip-path:url(#SVGID_2_);fill:none;stroke:#E19C14;stroke-width:3;stroke-miterlimit:10;}
	.st12{clip-path:url(#SVGID_2_);fill:none;stroke:#2B2B2B;stroke-width:0.75;stroke-miterlimit:10;}
	.st13{clip-path:url(#SVGID_2_);fill:#E19C14;stroke:#E19C14;stroke-miterlimit:10;}
	.st14{fill:none;stroke:#000000;stroke-miterlimit:10;}
	.st15{fill:none;stroke:#E19C14;stroke-width:1.25;stroke-miterlimit:10;}
</style><rect
     transform="matrix(0.79277199,0.60951831,-0.65757997,0.75338475,0,0)"
     y="-1.7681153"
     x="183.59215"
     height="88.235161"
     width="20.129269"
     id="rect11011"
     style="opacity:1;fill:#ffffff;fill-opacity:1;stroke:#000000;stroke-width:0.91703647;stroke-miterlimit:4;stroke-dasharray:none" /><path
     inkscape:connector-curvature="0"
     transform="matrix(1.5227793,0,0,1.6099231,-16.755956,-46.70275)"
     style="fill:none;stroke:#593d21;stroke-width:0.25;stroke-miterlimit:10"
     class="st2"
     d="m 53.1,152.4 c -2.9,-0.1 -5.3,1.6 -5.3,3.8"
     clip-path="url(#SVGID_2_)"
     id="path8522" /><path
     inkscape:connector-curvature="0"
     transform="matrix(1.5227793,0,0,1.6099231,-16.755956,-46.70275)"
     style="fill:#ffffff"
     class="st3"
     d="M 69.8,113.7 C 64.9,109.4 59.4,107 53.7,107 c -5.8,0 -11.3,2.5 -16.3,6.9 4.8,2.3 10.3,3.6 16,3.6 6,0 11.5,-1.4 16.4,-3.8"
     clip-path="url(#SVGID_2_)"
     id="path8524" /><path
     inkscape:connector-curvature="0"
     transform="matrix(1.5227793,0,0,1.6099231,-16.755956,-46.70275)"
     style="fill:none;stroke:#000000;stroke-miterlimit:10"
     class="st4"
     d="M 69.8,113.7 C 64.9,109.4 59.4,107 53.7,107 c -5.8,0 -11.3,2.5 -16.3,6.9 4.8,2.3 10.3,3.6 16,3.6 6,0 11.5,-1.4 16.4,-3.8 z"
     clip-path="url(#SVGID_2_)"
     id="path8526" /><path
     inkscape:connector-curvature="0"
     transform="matrix(1.5227793,0,0,1.6099231,-16.755956,-46.70275)"
     style="fill:#ffffff"
     class="st3"
     d="m 42.5,119.5 c 0,0 10.5,53.2 11,68 v 0 c 0.5,-14.8 11,-68 11,-68 0,0 1.9,-3.1 5.8,-5.4 -0.1,-0.1 -0.3,-0.3 -0.4,-0.4 -4.9,2.4 -10.5,3.8 -16.3,3.8 -5.7,0 -11.2,-1.3 -16,-3.6 -0.2,0.1 -0.3,0.3 -0.5,0.4 3.6,2.3 5.4,5.2 5.4,5.2"
     clip-path="url(#SVGID_2_)"
     id="path8528" /><path
     inkscape:connector-curvature="0"
     transform="matrix(1.5227793,0,0,1.6099231,-16.755956,-46.70275)"
     style="fill:none;stroke:#000000;stroke-miterlimit:10"
     class="st4"
     d="m 42.5,119.5 c 0,0 10.5,53.2 11,68 v 0 c 0.5,-14.8 11,-68 11,-68 0,0 1.9,-3.1 5.8,-5.4 -0.1,-0.1 -0.3,-0.3 -0.4,-0.4 -4.9,2.4 -10.5,3.8 -16.3,3.8 -5.7,0 -11.2,-1.3 -16,-3.6 -0.2,0.1 -0.3,0.3 -0.5,0.4 3.6,2.3 5.4,5.2 5.4,5.2 z"
     clip-path="url(#SVGID_2_)"
     id="path8530" /><path
     inkscape:connector-curvature="0"
     transform="matrix(1.5227793,0,0,1.6099231,-16.755956,-46.70275)"
     style="fill:#ffffff"
     class="st3"
     d="m 64.5,119.5 c 0,0 -10.5,53.2 -11,68 H 94 c 0,-32.7 -9.7,-60.8 -23.7,-73.4 -3.9,2.3 -5.8,5.4 -5.8,5.4"
     clip-path="url(#SVGID_2_)"
     id="path8532" /><path
     inkscape:connector-curvature="0"
     transform="matrix(1.5227793,0,0,1.6099231,-16.755956,-46.70275)"
     style="fill:none;stroke:#000000;stroke-miterlimit:10"
     class="st4"
     d="m 64.5,119.5 c 0,0 -10.5,53.2 -11,68 H 94 c 0,-32.7 -9.7,-60.8 -23.7,-73.4 -3.9,2.3 -5.8,5.4 -5.8,5.4 z"
     clip-path="url(#SVGID_2_)"
     id="path8534" /><path
     inkscape:connector-curvature="0"
     transform="matrix(1.5227793,0,0,1.6099231,-16.755956,-46.70275)"
     style="fill:#ffffff"
     class="st3"
     d="m 13.5,187.5 h 40 c -0.5,-14.8 -11,-68 -11,-68 0,0 -1.8,-2.9 -5.5,-5.2 C 23.1,127 13.5,155 13.5,187.5"
     clip-path="url(#SVGID_2_)"
     id="path8536" /><path
     inkscape:connector-curvature="0"
     transform="matrix(1.5227793,0,0,1.6099231,-16.755956,-46.70275)"
     style="fill:none;stroke:#000000;stroke-miterlimit:10"
     class="st4"
     d="m 13.5,187.5 h 40 c -0.5,-14.8 -11,-68 -11,-68 0,0 -1.8,-2.9 -5.5,-5.2 C 23.1,127 13.5,155 13.5,187.5 Z"
     clip-path="url(#SVGID_2_)"
     id="path8538" /><path
     inkscape:connector-curvature="0"
     transform="matrix(1.5227793,0,0,1.6099231,-16.755956,-46.70275)"
     style="fill:#ffffff"
     class="st3"
     d="m 88.5,81 c 0,19.3 -15.7,35 -35,35 -19.3,0 -35,-15.7 -35,-35 0,-19.3 15.7,-35 35,-35 19.3,0 35,15.7 35,35"
     clip-path="url(#SVGID_2_)"
     id="path8540" /><path
     inkscape:connector-curvature="0"
     transform="matrix(1.5227793,0,0,1.6099231,-16.755956,-46.70275)"
     style="fill:none;stroke:#e19c14;stroke-miterlimit:10"
     class="st5"
     d="m 49.3,80.8 c 1.1,11.3 9.7,14 10,0 z"
     clip-path="url(#SVGID_2_)"
     id="path8542" /><circle
     transform="matrix(1.5227793,0,0,1.6099231,-16.755956,-46.70275)"
     style="fill:none;stroke:#000000;stroke-width:2;stroke-miterlimit:10"
     class="st6"
     cx="53.5"
     cy="82.5"
     r="35"
     clip-path="url(#SVGID_2_)"
     id="circle8544" /><path
     inkscape:connector-curvature="0"
     transform="matrix(1.5227793,0,0,1.6099231,-16.755956,-46.70275)"
     style="fill:none;stroke:#000000;stroke-miterlimit:10"
     class="st4"
     d="M 46.7,70.4 C 42.9,66.8 36.1,67.9 31.5,72.8"
     clip-path="url(#SVGID_2_)"
     id="path8546" /><path
     inkscape:connector-curvature="0"
     transform="matrix(1.5227793,0,0,1.6099231,-16.755956,-46.70275)"
     style="fill:none;stroke:#000000;stroke-miterlimit:10"
     class="st4"
     d="M 76.1,72.6 C 73.5,68.1 66.7,67.1 60.8,70.4"
     clip-path="url(#SVGID_2_)"
     id="path8548" /><ellipse
     transform="matrix(1.5227793,0,0,1.6099231,-16.755956,-46.70275)"
     style="fill:none;stroke:#000000;stroke-miterlimit:10"
     class="st4"
     cx="40.099998"
     cy="74.5"
     rx="6"
     ry="4"
     clip-path="url(#SVGID_2_)"
     id="ellipse8550" /><path
     inkscape:connector-curvature="0"
     transform="matrix(1.5227793,0,0,1.6099231,-16.755956,-46.70275)"
     style="fill:#e19c14"
     class="st7"
     d="m 43.6,74.5 c 0,1.9 -1.6,3.5 -3.5,3.5 -1.9,0 -3.5,-1.6 -3.5,-3.5 0,-1.9 1.6,-3.5 3.5,-3.5 1.9,0 3.5,1.6 3.5,3.5"
     clip-path="url(#SVGID_2_)"
     id="path8552" /><ellipse
     transform="matrix(1.5227793,0,0,1.6099231,-16.755956,-46.70275)"
     style="fill:none;stroke:#000000;stroke-miterlimit:10"
     class="st4"
     cx="68.5"
     cy="74.5"
     rx="6"
     ry="4"
     clip-path="url(#SVGID_2_)"
     id="ellipse8554" /><path
     inkscape:connector-curvature="0"
     transform="matrix(1.5227793,0,0,1.6099231,-16.755956,-46.70275)"
     style="fill:#e19c14"
     class="st7"
     d="M 72,74.5 C 72,76.4 70.4,78 68.5,78 66.6,78 65,76.4 65,74.5 65,72.6 66.6,71 68.5,71 c 1.9,0 3.5,1.6 3.5,3.5"
     clip-path="url(#SVGID_2_)"
     id="path8556" /><path
     inkscape:connector-curvature="0"
     transform="matrix(1.5227793,0,0,1.6099231,-16.755956,-46.70275)"
     style="fill:none;stroke:#444444;stroke-miterlimit:10"
     class="st8"
     d="m 50.4,71.4 c 2.6,-1.5 5.2,-1.6 7.6,0"
     clip-path="url(#SVGID_2_)"
     id="path8558" /><rect
     transform="matrix(1.5227793,0,0,1.6099231,-16.755956,-46.70275)"
     style="fill:none;stroke:#444444;stroke-miterlimit:10"
     x="58.099998"
     y="66"
     class="st8"
     width="21.4"
     height="14.5"
     clip-path="url(#SVGID_2_)"
     id="rect8560" /><rect
     transform="matrix(1.5227793,0,0,1.6099231,-16.755956,-46.70275)"
     style="fill:none;stroke:#444444;stroke-miterlimit:10"
     x="29.1"
     y="66"
     class="st8"
     width="21.4"
     height="14.5"
     clip-path="url(#SVGID_2_)"
     id="rect8562" /><path
     inkscape:connector-curvature="0"
     transform="matrix(1.5227793,0,0,1.6099231,-16.755956,-46.70275)"
     style="fill:none;stroke:#444444;stroke-miterlimit:10"
     class="st8"
     d="M 28.8,74 C 26.3,75.7 20.4,71.5 15.6,64.6"
     clip-path="url(#SVGID_2_)"
     id="path8564" /><path
     inkscape:connector-curvature="0"
     transform="matrix(1.5227793,0,0,1.6099231,-16.755956,-46.70275)"
     style="fill:none;stroke:#444444;stroke-miterlimit:10"
     class="st8"
     d="m 79.8,74 c 2.2,1.5 7.6,-2.3 11.9,-8.5"
     clip-path="url(#SVGID_2_)"
     id="path8566" /><path
     inkscape:connector-curvature="0"
     transform="matrix(1.5227793,0,0,1.6099231,-16.755956,-46.70275)"
     style="fill:none;stroke:#444444;stroke-miterlimit:10"
     class="st8"
     d="m 50.4,74.4 c 2.6,-1.5 5.2,-1.6 7.6,0"
     clip-path="url(#SVGID_2_)"
     id="path8568" /><line
     transform="matrix(1.5227793,0,0,1.6099231,-16.755956,-46.70275)"
     class="st9"
     x1="56.900002"
     y1="104"
     x2="57.099998"
     y2="94"
     clip-path="url(#SVGID_2_)"
     id="line8570" /><line
     transform="matrix(1.5227793,0,0,1.6099231,-16.755956,-46.70275)"
     style="fill:none;stroke:#000000;stroke-width:0.25;stroke-miterlimit:10"
     class="st10"
     x1="56.900002"
     y1="104"
     x2="57.099998"
     y2="94"
     clip-path="url(#SVGID_2_)"
     id="line8572" /><line
     transform="matrix(1.5227793,0,0,1.6099231,-16.755956,-46.70275)"
     class="st9"
     x1="63"
     y1="103"
     x2="63"
     y2="93"
     clip-path="url(#SVGID_2_)"
     id="line8574" /><line
     transform="matrix(1.5227793,0,0,1.6099231,-16.755956,-46.70275)"
     style="fill:none;stroke:#000000;stroke-width:0.25;stroke-miterlimit:10"
     class="st10"
     x1="63"
     y1="103"
     x2="63"
     y2="93"
     clip-path="url(#SVGID_2_)"
     id="line8576" /><line
     transform="matrix(1.5227793,0,0,1.6099231,-16.755956,-46.70275)"
     class="st9"
     x1="60"
     y1="94"
     x2="60"
     y2="104"
     clip-path="url(#SVGID_2_)"
     id="line8578" /><line
     transform="matrix(1.5227793,0,0,1.6099231,-16.755956,-46.70275)"
     style="fill:none;stroke:#000000;stroke-width:0.25;stroke-miterlimit:10"
     class="st10"
     x1="60"
     y1="94"
     x2="60"
     y2="104"
     clip-path="url(#SVGID_2_)"
     id="line8580" /><line
     transform="matrix(1.5227793,0,0,1.6099231,-16.755956,-46.70275)"
     class="st9"
     x1="42"
     y1="98"
     x2="66"
     y2="98"
     clip-path="url(#SVGID_2_)"
     id="line8582" /><line
     transform="matrix(1.5227793,0,0,1.6099231,-16.755956,-46.70275)"
     style="fill:none;stroke:#000000;stroke-width:0.25;stroke-miterlimit:10"
     class="st10"
     x1="42"
     y1="98"
     x2="66"
     y2="98"
     clip-path="url(#SVGID_2_)"
     id="line8584" /><line
     transform="matrix(1.5227793,0,0,1.6099231,-16.755956,-46.70275)"
     class="st9"
     x1="54"
     y1="104"
     x2="53.900002"
     y2="94"
     clip-path="url(#SVGID_2_)"
     id="line8586" /><line
     transform="matrix(1.5227793,0,0,1.6099231,-16.755956,-46.70275)"
     style="fill:none;stroke:#000000;stroke-width:0.25;stroke-miterlimit:10"
     class="st10"
     x1="54"
     y1="104"
     x2="53.900002"
     y2="94"
     clip-path="url(#SVGID_2_)"
     id="line8588" /><line
     transform="matrix(1.5227793,0,0,1.6099231,-16.755956,-46.70275)"
     class="st9"
     x1="48"
     y1="103"
     x2="48"
     y2="94"
     clip-path="url(#SVGID_2_)"
     id="line8590" /><line
     transform="matrix(1.5227793,0,0,1.6099231,-16.755956,-46.70275)"
     style="fill:none;stroke:#000000;stroke-width:0.25;stroke-miterlimit:10"
     class="st10"
     x1="48"
     y1="103"
     x2="48"
     y2="94"
     clip-path="url(#SVGID_2_)"
     id="line8592" /><line
     transform="matrix(1.5227793,0,0,1.6099231,-16.755956,-46.70275)"
     class="st9"
     x1="51"
     y1="94"
     x2="51"
     y2="104"
     clip-path="url(#SVGID_2_)"
     id="line8594" /><line
     transform="matrix(1.5227793,0,0,1.6099231,-16.755956,-46.70275)"
     style="fill:none;stroke:#000000;stroke-width:0.25;stroke-miterlimit:10"
     class="st10"
     x1="51"
     y1="94"
     x2="51"
     y2="104"
     clip-path="url(#SVGID_2_)"
     id="line8596" /><line
     transform="matrix(1.5227793,0,0,1.6099231,-16.755956,-46.70275)"
     class="st9"
     x1="44.900002"
     y1="102.1"
     x2="44.900002"
     y2="94"
     clip-path="url(#SVGID_2_)"
     id="line8598" /><line
     transform="matrix(1.5227793,0,0,1.6099231,-16.755956,-46.70275)"
     style="fill:none;stroke:#000000;stroke-width:0.25;stroke-miterlimit:10"
     class="st10"
     x1="44.900002"
     y1="102.1"
     x2="44.900002"
     y2="94"
     clip-path="url(#SVGID_2_)"
     id="line8600" /><path
     inkscape:connector-curvature="0"
     transform="matrix(1.5227793,0,0,1.6099231,-16.755956,-46.70275)"
     style="fill:none;stroke:#e19c14;stroke-width:3;stroke-miterlimit:10"
     class="st11"
     d="m 64.8,101.7 c -1.5,3.2 -20.3,2.8 -21.3,-0.2 -0.9,-2.6 -3.1,-10 -0.4,-8.7 5.4,2.7 20.2,1.3 21.7,0 2.7,-2.3 0.5,8 0,8.9 z"
     clip-path="url(#SVGID_2_)"
     id="path8602" /><path
     inkscape:connector-curvature="0"
     transform="matrix(1.5227793,0,0,1.6099231,-16.755956,-46.70275)"
     style="fill:none;stroke:#593d21;stroke-width:0.25;stroke-miterlimit:10"
     class="st2"
     d="m 55.1,122.6 c -3.6,-0.1 -6.6,2.3 -6.7,5.4"
     clip-path="url(#SVGID_2_)"
     id="path8604" /><path
     inkscape:connector-curvature="0"
     transform="matrix(1.5227793,0,0,1.6099231,-16.755956,-46.70275)"
     style="fill:none;stroke:#593d21;stroke-width:0.25;stroke-miterlimit:10"
     class="st2"
     d="m 53.7,130.4 c 3.5,0.1 6.3,2.2 6.2,4.8"
     clip-path="url(#SVGID_2_)"
     id="path8606" /><path
     inkscape:connector-curvature="0"
     transform="matrix(1.5227793,0,0,1.6099231,-16.755956,-46.70275)"
     style="fill:none;stroke:#593d21;stroke-width:0.25;stroke-miterlimit:10"
     class="st2"
     d="m 54.7,141.4 c -2.5,-0.1 -4.6,2.4 -4.7,5.4"
     clip-path="url(#SVGID_2_)"
     id="path8608" /><path
     inkscape:connector-curvature="0"
     transform="matrix(1.5227793,0,0,1.6099231,-16.755956,-46.70275)"
     style="fill:none;stroke:#593d21;stroke-width:0.25;stroke-miterlimit:10"
     class="st2"
     d="m 51,156.5 c 2.5,0.1 4.5,1.9 4.5,4"
     clip-path="url(#SVGID_2_)"
     id="path8610" /><path
     inkscape:connector-curvature="0"
     transform="matrix(1.5227793,0,0,1.6099231,-16.755956,-46.70275)"
     style="fill:none;stroke:#593d21;stroke-width:0.25;stroke-miterlimit:10"
     class="st2"
     d="m 53,135 c 3.3,0.1 6,2.4 5.9,5.3"
     clip-path="url(#SVGID_2_)"
     id="path8612" /><path
     inkscape:connector-curvature="0"
     transform="matrix(1.0493503,1.1666539,-1.1035039,1.1094012,114.93568,-116.42767)"
     style="fill:#ffffff;stroke:#2b2b2b;stroke-width:0.75;stroke-miterlimit:10"
     class="st12"
     d="m 115,60.8 c -0.7,5.1 -0.2,12.9 1.3,21.4 L 123,81 c -0.4,-9.1 -3.7,-16.8 -8,-20.2 z"
     clip-path="url(#SVGID_2_)"
     id="path8614" /><path
     inkscape:connector-curvature="0"
     transform="matrix(1.0493503,1.1666539,-1.1035039,1.1094012,115.04063,-116.31101)"
     style="fill:#ffffff;stroke:#2b2b2b;stroke-width:0.75;stroke-miterlimit:10"
     class="st12"
     d="m 123.9,80.7 5.3,-1 c -1.5,-8 -3.7,-15 -6,-19.5 -1.8,5.1 -1.7,12.7 0.7,20.5 z"
     clip-path="url(#SVGID_2_)"
     id="path8616" /><path
     inkscape:connector-curvature="0"
     transform="matrix(1.0493503,1.1666539,-1.1035039,1.1094012,114.93568,-116.42767)"
     style="fill:#ffffff;stroke:#2b2b2b;stroke-width:0.75;stroke-miterlimit:10"
     class="st12"
     d="m 123.3,60.2 c -1.9,-3.7 -3.8,-5.9 -5.4,-5.6 -1.5,0.3 -2.5,2.5 -2.9,6.1 4.3,3.5 7.6,11.1 8,20.1 l 0.9,-0.2 c -2.4,-7.7 -2.5,-15.3 -0.6,-20.4 z"
     clip-path="url(#SVGID_2_)"
     id="path8618" /><line
     transform="matrix(1.0493503,1.1666539,-1.1035039,1.1094012,114.93568,-116.42767)"
     style="fill:#ffffff;stroke:#2b2b2b;stroke-width:0.75;stroke-miterlimit:10"
     class="st12"
     x1="123.2"
     y1="78.5"
     x2="123.5"
     y2="80.5"
     clip-path="url(#SVGID_2_)"
     id="line8620" /><line
     transform="matrix(1.0493503,1.1666539,-1.1035039,1.1094012,114.93568,-116.42767)"
     style="fill:#ff7900;fill-opacity:0.94974874;stroke:#ff7900;stroke-miterlimit:10;stroke-opacity:1"
     class="st13"
     x1="127.8"
     y1="59.599998"
     x2="136.8"
     y2="60"
     clip-path="url(#SVGID_2_)"
     id="line8622" /><line
     transform="matrix(1.0493503,1.1666539,-1.1035039,1.1094012,114.93568,-116.42767)"
     style="fill:#ff7900;fill-opacity:0.94974874;stroke:#ff7900;stroke-miterlimit:10;stroke-opacity:1"
     class="st13"
     x1="129.7"
     y1="63.599998"
     x2="138.7"
     y2="64"
     clip-path="url(#SVGID_2_)"
     id="line8624" /><line
     transform="matrix(1.0493503,1.1666539,-1.1035039,1.1094012,114.93568,-116.42767)"
     style="fill:#ff7900;fill-opacity:0.94974874;stroke:#ff7900;stroke-miterlimit:10;stroke-opacity:1"
     class="st13"
     x1="130.7"
     y1="67.699997"
     x2="139.7"
     y2="68.099998"
     clip-path="url(#SVGID_2_)"
     id="line8626" /><line
     transform="matrix(1.1565558,1.0472607,-0.9905734,1.2227417,105.24063,-131.32819)"
     style="fill:#ff7900;fill-opacity:0.94974874;stroke:#ff7900;stroke-miterlimit:10;stroke-opacity:1"
     class="st13"
     x1="131.5"
     y1="71.599998"
     x2="140.5"
     y2="72"
     clip-path="url(#SVGID_2_)"
     id="line8628" /><line
     transform="matrix(1.0493503,1.1666539,-1.1035039,1.1094012,114.93568,-116.42767)"
     style="fill:#ff7900;fill-opacity:0.94974874;stroke:#ff7900;stroke-miterlimit:10;stroke-opacity:1"
     class="st13"
     x1="132.3"
     y1="75"
     x2="141.39999"
     y2="75.400002"
     clip-path="url(#SVGID_2_)"
     id="line8630" /><line
     transform="matrix(1.0493503,1.1666539,-1.1035039,1.1094012,114.93568,-116.42767)"
     style="fill:#ff7900;fill-opacity:0.94974874;stroke:#ff7900;stroke-miterlimit:10;stroke-opacity:1"
     class="st13"
     x1="103.5"
     y1="82.099998"
     x2="112"
     y2="79"
     clip-path="url(#SVGID_2_)"
     id="line8632" /><line
     transform="matrix(1.0493503,1.1666539,-1.1035039,1.1094012,114.93568,-116.42767)"
     style="fill:#ff7900;fill-opacity:0.94974874;stroke:#ff7900;stroke-miterlimit:10;stroke-opacity:1"
     class="st13"
     x1="104.1"
     y1="77.800003"
     x2="112.6"
     y2="74.599998"
     clip-path="url(#SVGID_2_)"
     id="line8634" /><line
     transform="matrix(1.0493503,1.1666539,-1.1035039,1.1094012,114.93568,-116.42767)"
     style="fill:#ff7900;fill-opacity:0.94974874;stroke:#ff7900;stroke-miterlimit:10;stroke-opacity:1"
     class="st13"
     x1="103.8"
     y1="73.599998"
     x2="112.3"
     y2="70.5"
     clip-path="url(#SVGID_2_)"
     id="line8636" /><line
     transform="matrix(1.0493503,1.1666539,-1.1035039,1.1094012,114.93568,-116.42767)"
     style="fill:#ff7900;fill-opacity:0.94974874;stroke:#ff7900;stroke-miterlimit:10;stroke-opacity:1"
     class="st13"
     x1="103.3"
     y1="69.599998"
     x2="111.8"
     y2="66.5"
     clip-path="url(#SVGID_2_)"
     id="line8638" /><line
     transform="matrix(1.0493503,1.1666539,-1.1035039,1.1094012,114.93568,-116.42767)"
     style="fill:#ff7900;fill-opacity:0.94974874;stroke:#ff7900;stroke-miterlimit:10;stroke-opacity:1"
     class="st13"
     x1="103.1"
     y1="66.099998"
     x2="111.6"
     y2="63"
     clip-path="url(#SVGID_2_)"
     id="line8640" /><line
     id="line8644"
     y2="104.54346"
     x2="164.07213"
     y1="81.449341"
     x1="177.76237"
     class="st14"
     style="fill:#ffffff;stroke:#000000;stroke-width:1.56574512;stroke-miterlimit:10" /><path
     inkscape:connector-curvature="0"
     id="path8646"
     d="m 50.703169,18.982112 c -6.852506,-5.956716 -16.750572,-3.541831 -22.232579,5.473739 -4.41606,7.08366 -3.65467,16.904192 1.827336,21.572969 4.41606,3.863814 10.811734,2.253892 14.314126,-3.541832 2.893281,-4.507784 2.284169,-10.786484 -1.218224,-13.845339 -2.741003,-2.414883 -6.852506,-1.448929 -9.136676,2.253894 -1.827335,2.897861 -1.522779,6.922668 0.761391,8.854576 1.827334,1.609924 4.41606,0.965954 5.786561,-1.448931 1.218223,-1.931907 0.913667,-4.346792 -0.456834,-5.63473"
     class="st15"
     style="fill:none;stroke:#e19c14;stroke-width:1.95718133;stroke-miterlimit:10" /><path
     inkscape:connector-curvature="0"
     id="path8648"
     d="M 50.246336,40.555081 C 58.164789,36.530273 60.29668,25.90478 54.814674,16.889212 50.550891,9.644558 42.023327,6.424712 35.627653,9.644558 c -5.025171,2.575877 -6.395673,9.337554 -2.89328,15.133277 2.741003,4.668777 8.375287,6.761676 12.334512,4.668777 3.197838,-1.609924 4.111505,-5.956715 1.827336,-9.659539 -1.827336,-2.897861 -5.329727,-4.346792 -7.918453,-2.897861 -2.131891,1.126946 -2.588725,3.863815 -1.218223,6.278699 1.065946,1.931908 3.350115,2.736869 5.025172,1.931908"
     class="st15"
     style="fill:none;stroke:#e19c14;stroke-width:1.95718133;stroke-miterlimit:10" /><path
     inkscape:connector-curvature="0"
     id="path8650"
     d="m 43.241551,49.087673 c 7.918452,-4.024807 10.050344,-14.6503 4.568337,-23.66587 C 43.546106,18.17715 34.866264,14.957304 28.47059,18.17715 c -5.025171,2.575877 -6.395673,9.337554 -2.89328,15.133277 2.741003,4.668777 8.375287,6.761677 12.334512,4.668777 3.197838,-1.609923 4.111505,-5.956716 1.827336,-9.659539 -1.827336,-2.897862 -5.329727,-4.346791 -7.918453,-2.897862 -2.131891,1.126947 -2.588725,3.863816 -1.218223,6.278701 1.065946,1.931908 3.350115,2.736869 5.025171,1.931908"
     class="st15"
     style="fill:none;stroke:#e19c14;stroke-width:1.95718133;stroke-miterlimit:10" /><path
     inkscape:connector-curvature="0"
     id="path8652"
     d="M 49.94178,45.062866 C 52.530505,36.208288 46.743943,27.353711 36.6936,25.260812 c -7.918453,-1.609924 -16.141462,2.897862 -18.273353,9.981523 -1.675057,5.634731 2.131891,11.430453 8.375286,12.718391 5.025172,0.965954 10.354901,-1.770915 11.725401,-6.439692 1.065946,-3.702823 -1.3705,-7.244653 -5.482005,-8.049615 -3.197837,-0.643969 -6.547951,1.126946 -7.461619,4.024808 -0.76139,2.414885 0.913668,4.668777 3.502392,5.151754 2.131891,0.482977 4.263783,-0.804961 4.720617,-2.575877"
     class="st15"
     style="fill:none;stroke:#e19c14;stroke-width:1.95718133;stroke-miterlimit:10" /><path
     inkscape:connector-curvature="0"
     id="path8654"
     d="m 49.332668,41.521034 c 3.197837,-6.761676 0,-14.811291 -7.157062,-18.031137 -5.786563,-2.575878 -12.486792,-0.321986 -15.075517,5.151752 -2.13189,4.346793 0,9.498547 4.568339,11.591447 3.65467,1.609924 8.07073,0.160993 9.745787,-3.219846 1.370502,-2.736869 0,-6.117707 -2.893281,-7.405647 -2.284169,-1.126945 -5.177449,-0.160991 -6.243394,2.092901 -0.913669,1.770915 0,3.863815 1.827334,4.668777 1.522779,0.643969 3.350115,0 3.959227,-1.287939"
     class="st15"
     style="fill:none;stroke:#e19c14;stroke-width:1.95718133;stroke-miterlimit:10" /><path
     inkscape:connector-curvature="0"
     id="path8656"
     d="M 82.072424,40.716073 C 85.422539,32.505465 82.37698,23.00692 75.219918,19.304096 69.433355,16.406235 62.733126,19.143104 59.992123,25.743789 c -2.131891,5.151754 -0.152277,11.269461 4.41606,13.684346 3.654672,1.931908 8.070732,0 9.745789,-4.024808 1.370501,-3.380839 0.152278,-7.244653 -2.893281,-8.854577 -2.284169,-1.287938 -5.17745,0 -6.243396,2.575876 -0.913667,2.092901 0,4.668778 1.827336,5.634732 1.522779,0.804961 3.350115,0 3.959226,-1.609923"
     class="st15"
     style="fill:none;stroke:#e19c14;stroke-width:1.95718133;stroke-miterlimit:10" /><path
     inkscape:connector-curvature="0"
     id="path8658"
     d="m 34.257152,23.489897 c 2.28417,-7.244655 9.898066,-10.464501 17.207407,-7.405647 5.786561,2.575877 8.984399,9.176562 7.157063,14.972284 -1.370502,4.668778 -6.395674,6.761677 -10.964011,4.668778 -3.654671,-1.609923 -5.786562,-5.956716 -4.568338,-9.659539 0.913667,-2.897862 4.111505,-4.346791 7.004784,-3.058853 2.436448,0.965954 3.654672,3.863814 2.893282,6.117706 -0.609112,1.931908 -2.588725,2.73687 -4.568339,1.931908 -1.522779,-0.643968 -2.284169,-2.414885 -1.827334,-3.863814"
     class="st15"
     style="fill:none;stroke:#e19c14;stroke-width:1.95718133;stroke-miterlimit:10" /><path
     inkscape:connector-curvature="0"
     id="path8660"
     d="m 51.921393,38.140196 c -2.131891,-7.244653 2.284169,-14.650299 9.745788,-16.582207 6.091117,-1.609923 12.334513,1.931908 14.161848,7.72763 1.370501,4.668777 -1.370502,9.337554 -6.243395,10.625493 -3.959227,0.965954 -7.918453,-1.287939 -8.984399,-4.990762 -0.913667,-2.897862 0.913668,-5.956715 3.959227,-6.761676 2.436447,-0.64397 5.025172,0.804961 5.786562,3.219845 0.609112,1.931908 -0.609112,3.863816 -2.588726,4.346793 -1.522779,0.482976 -3.197836,-0.482977 -3.65467,-2.0929"
     class="st15"
     style="fill:none;stroke:#e19c14;stroke-width:1.95718133;stroke-miterlimit:10" /><path
     inkscape:connector-curvature="0"
     id="path8662"
     d="M 82.224702,27.031727 C 81.006478,17.855165 72.022081,12.542419 62.276292,15.279289 54.510118,17.533181 48.875835,25.260812 49.94178,32.666458 c 0.761389,5.956715 6.547951,9.337553 12.791346,7.566638 5.025172,-1.448931 8.527565,-6.439692 7.918453,-11.10847 -0.456833,-3.863814 -4.111504,-5.956715 -8.223008,-4.829768 -3.197837,0.965954 -5.482006,4.024807 -5.025172,7.083661 0.304556,2.414885 2.741002,3.863816 5.17745,3.058854 1.979613,-0.643969 3.502392,-2.575877 3.197836,-4.507784"
     class="st15"
     style="fill:none;stroke:#e19c14;stroke-width:1.95718133;stroke-miterlimit:10" /><path
     inkscape:connector-curvature="0"
     id="path8664"
     d="m 68.215133,42.647981 c 8.527564,2.575876 16.750572,-3.863816 18.425629,-14.328316 1.370502,-8.371599 -3.045558,-16.904192 -9.745787,-18.997092 -5.482006,-1.609923 -10.659456,2.414885 -11.87768,9.176562 -0.913667,5.473739 1.979614,10.786484 6.243396,12.235415 3.502393,1.126946 6.852508,-1.609924 7.613897,-5.795722 0.609111,-3.380839 -1.218224,-6.92267 -3.959227,-7.727632 -2.284168,-0.643969 -4.41606,0.965954 -4.872894,3.702823 -0.304555,2.253892 0.76139,4.507784 2.588726,4.990761"
     class="st15"
     style="fill:none;stroke:#e19c14;stroke-width:1.95718133;stroke-miterlimit:10" /><path
     inkscape:connector-curvature="0"
     id="path8666"
     d="m 57.555677,44.096912 c 8.527564,2.575876 16.750573,-3.863816 18.425629,-14.328316 1.370502,-8.3716 -3.045558,-16.904192 -9.745787,-18.997092 -5.482006,-1.609923 -10.659456,2.414885 -11.877678,9.176562 -0.913669,5.473737 1.979612,10.786484 6.243394,12.235415 3.502393,1.126946 6.852508,-1.609924 7.613898,-5.795724 0.609111,-3.380837 -1.218224,-6.922668 -3.959227,-7.72763 -2.284169,-0.643969 -4.41606,0.965954 -4.872893,3.702823 -0.304557,2.253892 0.761388,4.507784 2.588724,4.990761"
     class="st15"
     style="fill:none;stroke:#e19c14;stroke-width:1.95718133;stroke-miterlimit:10" /><path
     inkscape:connector-curvature="0"
     id="path8668"
     d="m 52.073671,44.901873 c 8.527564,2.575876 16.750573,-3.863816 18.42563,-14.328316 1.370502,-8.3716 -3.045558,-16.904192 -9.745788,-18.997091 -5.482005,-1.609924 -10.659456,2.414884 -11.877678,9.176561 -0.913668,5.473739 1.979613,10.786484 6.243394,12.235415 3.502393,1.126947 6.852508,-1.609923 7.613897,-5.795722 0.609112,-3.380839 -1.218223,-6.92267 -3.959225,-7.727631 -2.28417,-0.64397 -4.41606,0.965953 -4.872895,3.702822 -0.304556,2.253892 0.76139,4.507786 2.588725,4.990763"
     class="st15"
     style="fill:none;stroke:#e19c14;stroke-width:1.95718133;stroke-miterlimit:10" /><path
     inkscape:connector-curvature="0"
     id="path8670"
     d="m 67.149186,18.821119 c 6.243396,-3.702823 14.009571,-0.804961 17.359685,6.761677 2.741003,5.956715 0.761391,13.201369 -4.111503,16.260224 -3.959227,2.414883 -8.984399,0.482977 -11.11629,-4.346793 -1.675057,-3.863815 -0.456834,-8.532592 2.741003,-10.303507 2.588725,-1.609924 5.786561,-0.321986 7.157063,2.736869 1.065946,2.414884 0.304555,5.473738 -1.675057,6.600684 -1.675058,0.965954 -3.654671,0.160992 -4.568339,-1.770915 -0.76139,-1.609923 -0.152278,-3.541831 1.065946,-4.185801"
     class="st15"
     style="fill:none;stroke:#e19c14;stroke-width:1.95718133;stroke-miterlimit:10" /><path
     inkscape:connector-curvature="0"
     id="path8672"
     d="M 110.39612,32.82745 C 109.17789,23.650888 100.1935,18.338142 90.447711,21.075012 82.681536,23.328904 77.19953,31.056534 78.113199,38.462181 c 0.761389,5.956715 6.547951,9.337554 12.791345,7.566639 5.025172,-1.448931 8.527565,-6.439693 7.918453,-11.10847 -0.456833,-3.863816 -4.263782,-5.956715 -8.223008,-4.82977 -3.197837,0.965954 -5.482006,4.024809 -5.025172,7.083662 0.304556,2.414885 2.741003,3.863815 5.17745,3.058854 1.979613,-0.643969 3.502392,-2.575877 3.197837,-4.507784"
     class="st15"
     style="fill:none;stroke:#e19c14;stroke-width:1.95718133;stroke-miterlimit:10" /><path
     inkscape:connector-curvature="0"
     id="path8674"
     d="m 96.538828,48.443703 c 8.527562,2.575878 16.750572,-3.863814 18.425632,-14.328314 1.3705,-8.3716 -3.04557,-16.904193 -9.74579,-18.997093 -5.482004,-1.609923 -10.659455,2.414885 -11.877678,9.176562 -0.913667,5.473738 1.979614,10.786484 6.243395,12.235415 3.502393,1.126946 6.852503,-1.609923 7.613893,-5.795723 0.60912,-3.380839 -1.21822,-6.922669 -3.95923,-7.72763 -2.28416,-0.64397 -4.416053,0.965954 -4.872886,3.702823 -0.304556,2.253892 0.76139,4.507784 2.588726,4.990761"
     class="st15"
     style="fill:none;stroke:#e19c14;stroke-width:1.95718133;stroke-miterlimit:10" /><path
     inkscape:connector-curvature="0"
     id="path8676"
     d="M 85.879373,49.892634 C 94.406937,52.468512 102.62994,46.02882 104.305,35.564319 105.6755,27.19272 101.25944,18.660127 94.559215,16.567227 89.07721,14.957304 83.89976,18.982112 82.681536,25.743789 c -0.913667,5.473738 1.979614,10.786484 6.243396,12.235415 3.502393,1.126946 6.852507,-1.609923 7.613896,-5.795723 0.609112,-3.380839 -1.218222,-6.922669 -3.959226,-7.888623 -2.284168,-0.64397 -4.416061,0.965954 -4.872894,3.702823 -0.304556,2.253892 0.76139,4.507784 2.588726,4.990761"
     class="st15"
     style="fill:none;stroke:#e19c14;stroke-width:1.95718133;stroke-miterlimit:10" /><path
     inkscape:connector-curvature="0"
     id="path8678"
     d="m 80.24509,50.697595 c 8.527563,2.575878 16.750572,-3.863814 18.425629,-14.328314 1.370501,-8.3716 -3.045558,-16.904192 -9.745787,-18.997092 -5.482006,-1.609923 -10.659456,2.414884 -11.877679,9.176561 -0.913668,5.473738 1.979613,10.786485 6.243395,12.235415 3.502393,1.126947 6.852507,-1.609923 7.613896,-5.795723 0.609112,-3.380839 -1.218222,-6.922669 -3.959225,-7.72763 -2.284169,-0.64397 -4.41606,0.965954 -4.872895,3.702823 -0.304555,2.253892 0.76139,4.507784 2.588726,4.990761"
     class="st15"
     style="fill:none;stroke:#e19c14;stroke-width:1.95718133;stroke-miterlimit:10" /><path
     inkscape:connector-curvature="0"
     id="path8680"
     d="m 95.320606,24.616842 c 6.243394,-3.702823 14.009564,-0.804961 17.359684,6.761677 2.741,5.956716 0.76138,13.20137 -4.11151,16.260223 -3.95922,2.414885 -8.984393,0.482977 -11.116283,-4.346791 -1.675058,-3.863816 -0.456835,-8.532593 2.741003,-10.303509 2.58872,-1.609923 5.78656,-0.321984 7.15706,2.73687 1.06595,2.414884 0.30455,5.473738 -1.67506,6.600685 -1.67506,0.965954 -3.65467,0.160991 -4.56834,-1.770916 -0.76138,-1.609923 -0.15227,-3.541831 1.06595,-4.1858"
     class="st15"
     style="fill:none;stroke:#e19c14;stroke-width:1.95718133;stroke-miterlimit:10" /></svg>